<svg width="24" height="25" viewBox="0 0 24 25" fill="none" xmlns="http://www.w3.org/2000/svg">
<path d="M15.556 15.0481L15.101 15.5281C15.101 15.5281 14.018 16.6671 11.063 13.5561C8.108 10.4451 9.191 9.30612 9.191 9.30612L9.478 9.00312C10.184 8.25912 10.251 7.06512 9.634 6.19312L8.374 4.41012C7.61 3.33012 6.135 3.18812 5.26 4.10912L3.691 5.76012C3.258 6.21712 2.968 6.80812 3.003 7.46512C3.093 9.14512 3.811 12.7581 7.815 16.9751C12.062 21.4451 16.047 21.6231 17.676 21.4621C18.192 21.4121 18.64 21.1331 19.001 20.7531L20.421 19.2571C21.381 18.2471 21.111 16.5171 19.883 15.8111L17.973 14.7111C17.167 14.2481 16.186 14.3841 15.556 15.0471M13.26 2.38012C13.2921 2.18382 13.4009 2.00829 13.5623 1.89206C13.7237 1.77582 13.9246 1.72837 14.121 1.76012C14.146 1.76512 14.228 1.78012 14.271 1.79012C14.356 1.80812 14.475 1.83812 14.623 1.88012C14.92 1.96712 15.335 2.11012 15.833 2.33812C16.829 2.79512 18.154 3.59412 19.53 4.96912C20.906 6.34512 21.705 7.67112 22.162 8.66712C22.39 9.16512 22.532 9.57912 22.619 9.87712C22.6628 10.0269 22.7005 10.1783 22.732 10.3311L22.737 10.3621C22.7699 10.5602 22.7237 10.7632 22.6083 10.9275C22.4928 11.0917 22.3175 11.204 22.12 11.2401C21.9242 11.2719 21.7238 11.2248 21.5626 11.1092C21.4014 10.9936 21.2926 10.8188 21.26 10.6231C21.2395 10.5126 21.2125 10.4034 21.179 10.2961C21.0768 9.95269 20.9498 9.61714 20.799 9.29212C20.409 8.44212 19.707 7.26812 18.469 6.03012C17.232 4.79212 16.058 4.09112 15.207 3.70112C14.8823 3.55034 14.5471 3.42334 14.204 3.32112C14.0988 3.29144 13.9927 3.26476 13.886 3.24112C13.6896 3.20842 13.5139 3.09983 13.3968 2.93876C13.2796 2.7777 13.2305 2.57706 13.26 2.38012Z" fill="white"/>
<path fill-rule="evenodd" clip-rule="evenodd" d="M13.486 5.8299C13.513 5.73513 13.5583 5.64661 13.6195 5.56939C13.6807 5.49217 13.7565 5.42776 13.8426 5.37984C13.9287 5.33192 14.0234 5.30143 14.1212 5.29012C14.2191 5.2788 14.3183 5.28688 14.413 5.3139L14.416 5.3149L14.419 5.3159L14.427 5.3179L14.447 5.3239L14.503 5.3439C14.7688 5.44628 15.0254 5.57106 15.27 5.7169C15.759 6.0069 16.427 6.4869 17.212 7.2729C17.997 8.0579 18.478 8.7259 18.768 9.2149C18.913 9.4599 19.009 9.6589 19.071 9.8049C19.1043 9.88127 19.1343 9.959 19.161 10.0379L19.166 10.0579L19.169 10.0659V10.0689L19.17 10.0699C19.17 10.0699 19.17 10.0719 18.45 10.2779L19.17 10.0719C19.2208 10.2611 19.1955 10.4627 19.0996 10.6335C19.0037 10.8044 18.8447 10.9309 18.6567 10.986C18.4687 11.0411 18.2666 11.0205 18.0936 10.9286C17.9206 10.8366 17.7905 10.6806 17.731 10.4939L17.728 10.4839C17.6577 10.3097 17.5741 10.1413 17.478 9.9799C17.254 9.6029 16.851 9.0329 16.151 8.3329C15.451 7.6329 14.882 7.2309 14.505 7.0079C14.3437 6.91176 14.1752 6.82818 14.001 6.7579L13.991 6.7539C13.8021 6.6971 13.6432 6.56818 13.5487 6.39504C13.4541 6.22191 13.4316 6.01951 13.486 5.8299Z" fill="white"/>
</svg>
