<svg width="17" height="16" viewBox="0 0 17 16" fill="none" xmlns="http://www.w3.org/2000/svg">
<path d="M10.8707 9.69858L10.5674 10.0186C10.5674 10.0186 9.84536 10.7779 7.87536 8.70392C5.90536 6.62992 6.62736 5.87058 6.62736 5.87058L6.81869 5.66858C7.28936 5.17258 7.33403 4.37658 6.92269 3.79525L6.08269 2.60658C5.57336 1.88658 4.59003 1.79192 4.00669 2.40592L2.96069 3.50658C2.67203 3.81125 2.47869 4.20525 2.50203 4.64325C2.56203 5.76325 3.04069 8.17192 5.71003 10.9833C8.54136 13.9633 11.198 14.0819 12.284 13.9746C12.628 13.9412 12.9267 13.7552 13.1674 13.5019L14.114 12.5046C14.754 11.8313 14.574 10.6779 13.7554 10.2072L12.482 9.47392C11.9447 9.16525 11.2907 9.25592 10.8707 9.69792M9.34003 1.25325C9.36146 1.12238 9.43393 1.00537 9.54154 0.927875C9.64916 0.850384 9.78312 0.81875 9.91403 0.839917C9.93069 0.843251 9.98536 0.853251 10.014 0.859917C10.0707 0.871917 10.15 0.891917 10.2487 0.919917C10.4467 0.977917 10.7234 1.07325 11.0554 1.22525C11.7194 1.52992 12.6027 2.06258 13.52 2.97925C14.4374 3.89658 14.97 4.78058 15.2747 5.44458C15.4267 5.77658 15.5214 6.05258 15.5794 6.25125C15.6086 6.35107 15.6337 6.45204 15.6547 6.55392L15.658 6.57458C15.68 6.70661 15.6492 6.84197 15.5722 6.95147C15.4953 7.06097 15.3783 7.13584 15.2467 7.15992C15.1162 7.18111 14.9825 7.14973 14.8751 7.07264C14.7676 6.99555 14.6951 6.87903 14.6734 6.74858C14.6597 6.67491 14.6417 6.60211 14.6194 6.53058C14.5512 6.30163 14.4666 6.07793 14.366 5.86125C14.106 5.29458 13.638 4.51192 12.8127 3.68658C11.988 2.86125 11.2054 2.39392 10.638 2.13392C10.4216 2.0334 10.1981 1.94873 9.96936 1.88058C9.89921 1.86079 9.82852 1.84301 9.75736 1.82725C9.6264 1.80545 9.50926 1.73305 9.43119 1.62568C9.35313 1.5183 9.32038 1.38455 9.34003 1.25325Z" fill="#FE5722"/>
<path fill-rule="evenodd" clip-rule="evenodd" d="M9.49069 3.5531C9.50867 3.48993 9.53891 3.43091 9.5797 3.37943C9.62049 3.32795 9.67103 3.28501 9.72842 3.25306C9.78581 3.22112 9.84893 3.20079 9.91418 3.19325C9.97943 3.18571 10.0455 3.19109 10.1087 3.2091L10.1107 3.20977L10.1127 3.21044L10.118 3.21177L10.1314 3.21577L10.1687 3.2291C10.3459 3.29736 10.5169 3.38055 10.68 3.47777C11.006 3.6711 11.4514 3.9911 11.9747 4.5151C12.498 5.03844 12.8187 5.48377 13.012 5.80977C13.1087 5.9731 13.1727 6.10577 13.214 6.2031C13.2362 6.25402 13.2562 6.30584 13.274 6.35844L13.2774 6.37177L13.2794 6.3771V6.3791L13.28 6.37977C13.28 6.37977 13.28 6.3811 12.8 6.51844L13.28 6.3811C13.3139 6.50725 13.297 6.64164 13.2331 6.75552C13.1691 6.86941 13.0632 6.95375 12.9378 6.99051C12.8125 7.02726 12.6777 7.01351 12.5624 6.9522C12.4471 6.89089 12.3603 6.78689 12.3207 6.66244L12.3187 6.65577C12.2718 6.53967 12.2161 6.42734 12.152 6.31977C12.0027 6.06843 11.734 5.68844 11.2674 5.22177C10.8007 4.7551 10.4214 4.4871 10.17 4.33844C10.0625 4.27435 9.95013 4.21863 9.83402 4.17177L9.82736 4.1691C9.70142 4.13124 9.59547 4.04529 9.53246 3.92987C9.46944 3.81444 9.45444 3.67951 9.49069 3.5531Z" fill="#FE5722"/>
</svg>
