<svg width="28" height="28" viewBox="0 0 28 28" fill="none" xmlns="http://www.w3.org/2000/svg">
<path fill-rule="evenodd" clip-rule="evenodd" d="M22.75 12.8336H6.84483C7.90183 11.1781 10.7263 9.15155 12.8613 7.99772C13.4295 7.69205 13.6395 6.98389 13.335 6.41805C13.0282 5.85222 12.3223 5.63755 11.7542 5.94555C10.4743 6.63505 4.08916 10.2669 4.08333 13.9979C4.08333 13.9991 4.08333 13.9991 4.08333 14.0002V14.0026C4.08333 17.7324 10.4743 21.3642 11.7542 22.0549C11.9315 22.1506 12.1205 22.1949 12.3072 22.1949C12.7213 22.1949 13.1238 21.9732 13.335 21.5824C13.6395 21.0166 13.4295 20.3072 12.8613 20.0027C10.7252 18.8477 7.89833 16.8212 6.84249 15.1669H22.75C23.3952 15.1669 23.9167 14.6454 23.9167 14.0002C23.9167 13.3551 23.3952 12.8336 22.75 12.8336Z" fill="black"/>
</svg>
