<svg width="16" height="16" viewBox="0 0 16 16" fill="none" xmlns="http://www.w3.org/2000/svg">
<g clip-path="url(#clip0_173_1878)">
<path d="M15.3334 7.99984C15.3334 12.0532 12.0534 15.3332 8.00002 15.3332C3.94669 15.3332 0.666687 12.0532 0.666687 7.99984C0.666687 3.9465 3.94669 0.666504 8.00002 0.666504C12.0534 0.666504 15.3334 3.9465 15.3334 7.99984ZM8.66669 2.7065C10.0867 2.8865 11.38 3.63317 12.2467 4.77317L13.4067 4.1065C12.8589 3.33412 12.1528 2.68729 11.3355 2.20909C10.5182 1.73089 9.60841 1.43229 8.66669 1.33317V2.7065ZM2.59335 4.1065L3.75335 4.77317C4.18311 4.20838 4.72097 3.73478 5.33561 3.37996C5.95024 3.02515 6.62935 2.79621 7.33335 2.7065V1.33317C6.39163 1.43229 5.48183 1.73089 4.66452 2.20909C3.84721 2.68729 3.14116 3.33412 2.59335 4.1065ZM1.92669 10.7332L3.08002 10.0665C2.80608 9.41193 2.66501 8.70942 2.66501 7.99984C2.66501 7.29025 2.80608 6.58775 3.08002 5.93317L1.92669 5.2665C1.53463 6.1244 1.33171 7.0566 1.33171 7.99984C1.33171 8.94308 1.53463 9.87527 1.92669 10.7332ZM7.33335 13.2932C6.62935 13.2035 5.95024 12.9745 5.33561 12.6197C4.72097 12.2649 4.18311 11.7913 3.75335 11.2265L2.59335 11.8932C3.14116 12.6656 3.84721 13.3124 4.66452 13.7906C5.48183 14.2688 6.39163 14.5674 7.33335 14.6665V13.2932ZM13.4067 11.8932L12.2467 11.2265C11.8169 11.7913 11.2791 12.2649 10.6644 12.6197C10.0498 12.9745 9.37069 13.2035 8.66669 13.2932V14.6265C10.5667 14.4332 12.2934 13.4398 13.4067 11.8932ZM14.0734 10.7332C14.8667 8.99984 14.8667 6.99984 14.0734 5.2665L12.92 5.93317C13.194 6.58775 13.335 7.29025 13.335 7.99984C13.335 8.70942 13.194 9.41193 12.92 10.0665L14.0734 10.7332ZM10 7.99984L8.00002 4.6665L6.00002 7.99984L8.00002 11.3332L10 7.99984Z" fill="#FE5722"/>
</g>
<defs>
<clipPath id="clip0_173_1878">
<rect width="16" height="16" fill="white"/>
</clipPath>
</defs>
</svg>
