<svg width="16" height="16" viewBox="0 0 16 16" fill="none" xmlns="http://www.w3.org/2000/svg">
<path d="M4.96402 11.036L3.21536 10.0867L3.60802 9.69403L5.15869 9.92737L7.92536 7.1607L3.02069 4.50737L3.51802 3.9967L9.55136 5.52737L11.5134 3.56003C11.6422 3.43114 11.7951 3.3667 11.972 3.3667C12.1485 3.3667 12.3011 3.43114 12.43 3.56003C12.5589 3.68892 12.6234 3.84403 12.6234 4.02537C12.6234 4.20581 12.5589 4.3607 12.43 4.49003L10.4834 6.46137L12.002 12.482L11.5047 12.992L8.83802 8.08737L6.09669 10.828L6.31669 12.392L5.91202 12.7974L4.96402 11.036Z" fill="#FE5722"/>
</svg>
