<svg width="14" height="12" viewBox="0 0 14 12" fill="none" xmlns="http://www.w3.org/2000/svg">
<path d="M4.75 11.394V10.5H1.462C1.1285 10.5 0.84325 10.3812 0.60625 10.1437C0.36925 9.90625 0.2505 9.6215 0.25 9.2895V1.21125C0.25 0.87825 0.36875 0.59325 0.60625 0.35625C0.84375 0.11925 1.12875 0.0005 1.46125 0H12.5387C12.8717 0 13.1567 0.11875 13.3937 0.35625C13.6307 0.59375 13.7495 0.87875 13.75 1.21125V4.875H6.706L8.203 3.378C8.273 3.308 8.3105 3.222 8.3155 3.12C8.3205 3.018 8.283 2.927 8.203 2.847C8.123 2.767 8.0345 2.727 7.9375 2.727C7.8405 2.727 7.752 2.767 7.672 2.847L5.6935 4.8255C5.5725 4.947 5.512 5.0885 5.512 5.25C5.512 5.4115 5.5725 5.553 5.6935 5.6745L7.672 7.653C7.742 7.723 7.82825 7.7605 7.93075 7.7655C8.03225 7.7705 8.123 7.733 8.203 7.653C8.283 7.573 8.323 7.4845 8.323 7.3875C8.323 7.2905 8.283 7.202 8.203 7.122L6.706 5.625H13.75V9.28875C13.75 9.62175 13.6312 9.90675 13.3937 10.1437C13.1562 10.3807 12.8713 10.4995 12.5387 10.5H9.25V11.394C9.25 11.566 9.192 11.71 9.076 11.826C8.96 11.942 8.816 12 8.644 12H5.356C5.1845 12 5.0405 11.942 4.924 11.826C4.8075 11.71 4.7495 11.566 4.75 11.394Z" fill="#1D1446"/>
</svg>
