<svg width="16" height="16" viewBox="0 0 16 16" fill="none" xmlns="http://www.w3.org/2000/svg">
<path fill-rule="evenodd" clip-rule="evenodd" d="M14.6667 10.6667V8C14.6667 6.11467 14.6667 5.17133 14.0807 4.586C13.5307 4.03533 12.6653 4.002 11 4V14.6667C12.6653 14.6647 13.5307 14.6313 14.0807 14.0807C14.6667 13.4953 14.6667 12.5513 14.6667 10.6667ZM12.6667 7.334C12.8435 7.334 13.013 7.40424 13.1381 7.52926C13.2631 7.65429 13.3333 7.82386 13.3333 8.00067C13.3333 8.17748 13.2631 8.34705 13.1381 8.47207C13.013 8.5971 12.8435 8.66733 12.6667 8.66733C12.4899 8.66733 12.3203 8.5971 12.1953 8.47207C12.0702 8.34705 12 8.17748 12 8.00067C12 7.82386 12.0702 7.65429 12.1953 7.52926C12.3203 7.40424 12.4899 7.334 12.6667 7.334ZM12.6667 10.0007C12.8435 10.0007 13.013 10.0709 13.1381 10.1959C13.2631 10.321 13.3333 10.4905 13.3333 10.6673C13.3333 10.8441 13.2631 11.0137 13.1381 11.1387C13.013 11.2638 12.8435 11.334 12.6667 11.334C12.4899 11.334 12.3203 11.2638 12.1953 11.1387C12.0702 11.0137 12 10.8441 12 10.6673C12 10.4905 12.0702 10.321 12.1953 10.1959C12.3203 10.0709 12.4899 10.0007 12.6667 10.0007Z" fill="#FE5722"/>
<path d="M10.38 2.32558L8.94334 4.00024H10V14.6669H5.33334C3.44801 14.6669 2.50468 14.6669 1.91934 14.0809C1.33334 13.4956 1.33334 12.5522 1.33334 10.6676V8.00091C1.33334 6.11424 1.33334 5.17158 1.91934 4.58624C2.50468 4.00024 3.44801 4.00024 5.33334 4.00024H7.05601L5.62001 2.32558C5.53876 2.22436 5.50006 2.09551 5.51208 1.96628C5.5241 1.83704 5.5859 1.71755 5.68442 1.63305C5.78295 1.54856 5.91046 1.50568 6.04002 1.51349C6.16958 1.5213 6.29102 1.57919 6.37868 1.67491L8.00001 3.56558L9.62001 1.67491C9.70629 1.57413 9.82908 1.51175 9.96136 1.5015C10.0936 1.49124 10.2246 1.53396 10.3253 1.62024C10.4261 1.70653 10.4885 1.82931 10.4988 1.96159C10.509 2.09386 10.4663 2.22479 10.38 2.32558Z" fill="#FE5722"/>
</svg>
