<svg width="24" height="24" viewBox="0 0 24 24" fill="none" xmlns="http://www.w3.org/2000/svg">
<path fill-rule="evenodd" clip-rule="evenodd" d="M16.9536 3.72837V2.12537C16.9536 1.71137 16.6176 1.37537 16.2036 1.37537C15.7896 1.37537 15.4536 1.71137 15.4536 2.12537V5.38837C15.4536 5.64837 15.5946 5.86737 15.7966 6.00137C15.6776 6.08137 15.5426 6.13837 15.3886 6.13837C14.9746 6.13837 14.6386 5.80237 14.6386 5.38837V3.22237C13.8366 3.12637 12.9626 3.07737 11.9996 3.07737C10.8656 3.07737 9.85459 3.14537 8.94559 3.28237V2.12537C8.94559 1.71137 8.60959 1.37537 8.19559 1.37537C7.78159 1.37537 7.44559 1.71137 7.44559 2.12537V5.38837C7.44559 5.64837 7.58659 5.86737 7.78859 6.00137C7.66959 6.08137 7.53459 6.13837 7.38059 6.13837C6.96659 6.13837 6.63059 5.80237 6.63059 5.38837V3.85837C4.49659 4.68137 3.24459 6.21237 2.65259 8.65037H21.3476C20.7196 6.06437 19.3316 4.51237 16.9536 3.72837Z" fill="#A29FB3"/>
<path fill-rule="evenodd" clip-rule="evenodd" d="M16.4126 14.0867C15.9986 14.0867 15.6586 13.7507 15.6586 13.3367C15.6586 12.9227 15.9896 12.5867 16.4036 12.5867H16.4126C16.8266 12.5867 17.1626 12.9227 17.1626 13.3367C17.1626 13.7507 16.8266 14.0867 16.4126 14.0867ZM16.4126 17.9397C15.9986 17.9397 15.6586 17.6037 15.6586 17.1897C15.6586 16.7747 15.9896 16.4397 16.4036 16.4397H16.4126C16.8266 16.4397 17.1626 16.7747 17.1626 17.1897C17.1626 17.6037 16.8266 17.9397 16.4126 17.9397ZM12.0136 14.0867C11.5996 14.0867 11.2586 13.7507 11.2586 13.3367C11.2586 12.9227 11.5906 12.5867 12.0046 12.5867H12.0136C12.4276 12.5867 12.7636 12.9227 12.7636 13.3367C12.7636 13.7507 12.4276 14.0867 12.0136 14.0867ZM12.0136 17.9397C11.5996 17.9397 11.2586 17.6037 11.2586 17.1897C11.2586 16.7747 11.5906 16.4397 12.0046 16.4397H12.0136C12.4276 16.4397 12.7636 16.7747 12.7636 17.1897C12.7636 17.6037 12.4276 17.9397 12.0136 17.9397ZM7.60559 14.0867C7.19159 14.0867 6.85059 13.7507 6.85059 13.3367C6.85059 12.9227 7.18259 12.5867 7.59659 12.5867H7.60559C8.01959 12.5867 8.35559 12.9227 8.35559 13.3367C8.35559 13.7507 8.01959 14.0867 7.60559 14.0867ZM7.60559 17.9397C7.19159 17.9397 6.85059 17.6037 6.85059 17.1897C6.85059 16.7747 7.18259 16.4397 7.59659 16.4397H7.60559C8.01959 16.4397 8.35559 16.7747 8.35559 17.1897C8.35559 17.6037 8.01959 17.9397 7.60559 17.9397ZM21.6196 10.1497H2.38059C2.27859 10.9697 2.22559 11.8627 2.22559 12.8517C2.22559 20.0667 4.78359 22.6247 11.9996 22.6247C19.2166 22.6247 21.7746 20.0667 21.7746 12.8517C21.7746 11.8627 21.7216 10.9697 21.6196 10.1497Z" fill="#A29FB3"/>
</svg>
