<svg width="18" height="18" viewBox="0 0 18 18" fill="none" xmlns="http://www.w3.org/2000/svg">
<path fill-rule="evenodd" clip-rule="evenodd" d="M12.6913 7.59526C12.3808 7.59526 12.1258 7.34326 12.1258 7.03276C12.1258 6.72226 12.3741 6.47026 12.6846 6.47026H12.6913C13.0018 6.47026 13.2538 6.72226 13.2538 7.03276C13.2538 7.34326 13.0018 7.59526 12.6913 7.59526ZM9.00056 12.5783C7.38956 12.5783 6.07931 11.2673 6.07931 9.65626C6.07931 8.04601 7.38956 6.73576 9.00056 6.73576C10.6116 6.73576 11.9218 8.04601 11.9218 9.65626C11.9218 11.2673 10.6116 12.5783 9.00056 12.5783ZM13.2148 4.50226C13.0881 4.46251 12.9036 4.37926 12.7483 4.20901C12.6838 4.13851 12.5968 3.96226 12.5128 3.79276C12.2863 3.33451 11.9766 2.70751 11.3533 2.44501C10.5523 2.10901 7.47731 2.10751 6.65006 2.44351C6.03506 2.69626 5.72156 3.32626 5.49281 3.78601C5.40656 3.95851 5.31806 4.13701 5.25206 4.20901C5.09756 4.38001 4.91306 4.46251 4.79831 4.49926C2.32556 5.18326 1.87256 6.79051 1.87256 9.70801C1.87256 13.926 2.90156 15.8078 9.00056 15.8078C15.0988 15.8078 16.1278 13.926 16.1278 9.70801C16.1278 6.79051 15.6756 5.18326 13.2148 4.50226Z" fill="black"/>
<path fill-rule="evenodd" clip-rule="evenodd" d="M9.00066 7.86038C8.00991 7.86038 7.20441 8.66588 7.20441 9.65663C7.20441 10.6474 8.00991 11.4529 9.00066 11.4529C9.99141 11.4529 10.7969 10.6474 10.7969 9.65663C10.7969 8.66588 9.99141 7.86038 9.00066 7.86038Z" fill="black"/>
</svg>
