<svg width="24" height="24" viewBox="0 0 24 24" fill="none" xmlns="http://www.w3.org/2000/svg">
<g clip-path="url(#clip0_820_6812)">
<path d="M12.4938 24.136C6.22096 24.136 1.1358 19.0508 1.1358 12.7779C1.1358 6.50508 6.22096 1.41992 12.4938 1.41992C18.7667 1.41992 23.8518 6.50508 23.8518 12.7779C23.8518 19.0508 18.7667 24.136 12.4938 24.136Z" fill="#D90026"/>
<path d="M14.1759 8.51771L13.0595 8.39749L13.8839 7.73336L13.6824 6.80817L14.5274 7.35092L15.3518 6.68679L15.2316 7.80321L15.9358 8.2555L15.0106 8.45703L14.7495 9.48298L14.1759 8.51771Z" fill="#FFDB44"/>
<path d="M7.38271 14.8011L4.61419 16.1854L5.53703 13.4168L3.69135 11.5712H6.45987L7.38271 8.80264L8.76697 11.5712H11.0741L9.22839 13.4168L10.1512 16.1854L7.38271 14.8011Z" fill="#FFDB44"/>
<path d="M14.1759 17.0476L13.0595 17.1678L13.8839 17.8319L13.6824 18.7571L14.5274 18.2144L15.3518 18.8785L15.2316 17.7621L15.9358 17.3098L15.0106 17.1083L14.7495 16.0823L14.1759 17.0476Z" fill="#FFDB44"/>
<path d="M16.8707 11.5202L15.8354 11.0854L16.8154 10.6851L16.8871 9.74092L17.5415 10.5028L18.5215 10.1025L18.0867 11.1378L18.632 11.7727L17.6879 11.701L17.1441 12.6093L16.8707 11.5202Z" fill="#FFDB44"/>
<path d="M16.8707 14.6889L15.8354 15.1237L16.8154 15.524L16.8871 16.4682L17.5415 15.7063L18.5215 16.1066L18.0867 15.0713L18.632 14.4364L17.6879 14.5081L17.1441 13.5998L16.8707 14.6889Z" fill="#FFDB44"/>
</g>
<defs>
<clipPath id="clip0_820_6812">
<rect width="24" height="24" fill="white"/>
</clipPath>
</defs>
</svg>
