<svg width="22" height="20" viewBox="0 0 22 20" fill="none" xmlns="http://www.w3.org/2000/svg">
<path fill-rule="evenodd" clip-rule="evenodd" d="M17.1451 7.52981C16.7931 7.95181 13.6341 11.6528 11.0111 11.6528C8.39107 11.6528 5.20007 7.95481 4.84407 7.53281C4.57807 7.21581 4.61807 6.74281 4.93507 6.47581C5.25107 6.20781 5.72407 6.24981 5.99107 6.56581C7.16207 7.95281 9.55907 10.1528 11.0111 10.1528C12.4621 10.1528 14.8371 7.95481 15.9931 6.56881C16.2581 6.25181 16.7311 6.20981 17.0491 6.47281C17.3671 6.73881 17.4101 7.21181 17.1451 7.52981ZM11.0001 0.382812C3.59907 0.382812 0.976074 2.89881 0.976074 9.99981C0.976074 17.0998 3.59907 19.6168 11.0001 19.6168C18.4011 19.6168 21.0241 17.0998 21.0241 9.99981C21.0241 2.89881 18.4011 0.382812 11.0001 0.382812Z" fill="#A29FB3"/>
</svg>
