<svg width="65" height="66" viewBox="0 0 65 66" fill="none" xmlns="http://www.w3.org/2000/svg">
<g opacity="0.1">
<path d="M32.6533 0.891602C50.4477 0.891602 64.8953 15.3393 64.8953 33.1336C64.8953 50.928 50.4477 65.3756 32.6533 65.3756C14.8589 65.3756 0.411255 50.928 0.411255 33.1336C0.411255 15.3393 14.8589 0.891602 32.6533 0.891602Z" fill="#1D1446"/>
</g>
<g opacity="0.2">
<path d="M32.6532 4.83105C48.2743 4.83105 60.9574 17.5142 60.9574 33.1352C60.9574 48.7563 48.2743 61.4394 32.6532 61.4394C17.0321 61.4394 4.349 48.7563 4.349 33.1352C4.349 17.5142 17.0321 4.83105 32.6532 4.83105Z" fill="#1D1446"/>
</g>
<path d="M32.6532 10.2451C45.2858 10.2451 55.5425 20.5018 55.5425 33.1344C55.5425 45.767 45.2858 56.0237 32.6532 56.0237C20.0206 56.0237 9.76392 45.767 9.76392 33.1344C9.76392 20.5018 20.0206 10.2451 32.6532 10.2451Z" fill="#1D1446"/>
<path d="M20.6839 36.0356C23.4556 38.2587 28.9991 42.7048 28.9991 42.7048C28.9991 42.7048 39.1854 31.3508 44.2785 25.6738" stroke="white" stroke-width="5.84257" stroke-linecap="round" stroke-linejoin="round"/>
</svg>
