<svg width="24" height="24" viewBox="0 0 24 24" fill="none" xmlns="http://www.w3.org/2000/svg">
<g clip-path="url(#clip0_2236_8678)">
<path d="M11.3333 8.0004H9.43331C8.46308 7.98702 7.51859 8.31269 6.7628 8.92122C6.007 9.52975 5.48729 10.383 5.29331 11.3337H1.33331V12.6671H5.28665C5.47722 13.6207 5.99693 14.4771 6.75492 15.0864C7.51292 15.6957 8.46096 16.0192 9.43331 16.0004H11.3333V8.0004Z" fill="black"/>
<path d="M18.82 11.3339C18.6256 10.3809 18.104 9.52592 17.3454 8.91712C16.5868 8.30833 15.6392 7.98409 14.6667 8.0006H12.6667V16.0006H14.6667C15.639 16.0195 16.5871 15.6959 17.3451 15.0866C18.1031 14.4773 18.6228 13.6209 18.8134 12.6673H22.6667V11.3339H18.82Z" fill="black"/>
</g>
<defs>
<clipPath id="clip0_2236_8678">
<rect width="24" height="24" fill="white"/>
</clipPath>
</defs>
</svg>
