<svg width="40" height="40" viewBox="0 0 40 40" fill="none" xmlns="http://www.w3.org/2000/svg">
<path d="M14.5834 34.6733H28.1462C27.921 35.0254 27.6287 35.3329 27.2836 35.5768C26.7346 35.9649 26.0789 36.1732 25.4067 36.1733H14.5834C12.6163 36.1733 10.7299 35.3919 9.33898 34.001C7.94808 32.6101 7.16669 30.7236 7.16669 28.7566V11.2499C7.16669 10.0989 7.76566 9.08563 8.67056 8.50813L8.66669 11.2492V11.2499V28.7566C8.66669 30.3258 9.29005 31.8307 10.3996 32.9403C11.5092 34.0499 13.0142 34.6733 14.5834 34.6733ZM29.5834 3.83325C30.0101 3.83325 30.4328 3.91732 30.8271 4.08064C31.2214 4.24397 31.5797 4.48336 31.8814 4.78515L32.235 4.4316L31.8815 4.78516C32.1832 5.08695 32.4226 5.44522 32.586 5.83953C32.7493 6.23384 32.8334 6.65646 32.8334 7.08325V28.7499C32.8334 29.1767 32.7493 29.5993 32.586 29.9936C32.4226 30.3879 32.1832 30.7462 31.8815 31.048C31.5797 31.3498 31.2214 31.5892 30.8271 31.7525C30.4328 31.9159 30.0101 31.9999 29.5834 31.9999H14.5834C13.7214 31.9999 12.8948 31.6575 12.2853 31.048C11.6758 30.4385 11.3334 29.6119 11.3334 28.7499V7.08325C11.3334 6.2213 11.6758 5.39465 12.2853 4.78515C12.8948 4.17566 13.7214 3.83325 14.5834 3.83325H29.5834Z" fill="white" stroke="#FE5722"/>
</svg>
