<svg width="18" height="18" viewBox="0 0 18 18" fill="none" xmlns="http://www.w3.org/2000/svg">
<path d="M12.27 10.5C12.33 10.005 12.375 9.51 12.375 9C12.375 8.49 12.33 7.995 12.27 7.5H14.805C14.925 7.98 15 8.4825 15 9C15 9.5175 14.925 10.02 14.805 10.5M10.9425 14.67C11.3925 13.8375 11.7375 12.9375 11.9775 12H14.19C13.4634 13.2512 12.3106 14.199 10.9425 14.67ZM10.755 10.5H7.245C7.17 10.005 7.125 9.51 7.125 9C7.125 8.49 7.17 7.9875 7.245 7.5H10.755C10.8225 7.9875 10.875 8.49 10.875 9C10.875 9.51 10.8225 10.005 10.755 10.5ZM9 14.97C8.3775 14.07 7.875 13.0725 7.5675 12H10.4325C10.125 13.0725 9.6225 14.07 9 14.97ZM6 6H3.81C4.52898 4.74528 5.68099 3.79593 7.05 3.33C6.6 4.1625 6.2625 5.0625 6 6ZM3.81 12H6C6.2625 12.9375 6.6 13.8375 7.05 14.67C5.6837 14.1992 4.53322 13.2511 3.81 12ZM3.195 10.5C3.075 10.02 3 9.5175 3 9C3 8.4825 3.075 7.98 3.195 7.5H5.73C5.67 7.995 5.625 8.49 5.625 9C5.625 9.51 5.67 10.005 5.73 10.5M9 3.0225C9.6225 3.9225 10.125 4.9275 10.4325 6H7.5675C7.875 4.9275 8.3775 3.9225 9 3.0225ZM14.19 6H11.9775C11.7424 5.07121 11.3948 4.17458 10.9425 3.33C12.3225 3.8025 13.47 4.755 14.19 6ZM9 1.5C4.8525 1.5 1.5 4.875 1.5 9C1.5 10.9891 2.29018 12.8968 3.6967 14.3033C4.39314 14.9997 5.21993 15.5522 6.12987 15.9291C7.03982 16.306 8.01509 16.5 9 16.5C10.9891 16.5 12.8968 15.7098 14.3033 14.3033C15.7098 12.8968 16.5 10.9891 16.5 9C16.5 8.01509 16.306 7.03982 15.9291 6.12987C15.5522 5.21993 14.9997 4.39314 14.3033 3.6967C13.6069 3.00026 12.7801 2.44781 11.8701 2.0709C10.9602 1.69399 9.98491 1.5 9 1.5Z" fill="#1D1446"/>
</svg>
