<svg width="14" height="13" viewBox="0 0 14 13" fill="none" xmlns="http://www.w3.org/2000/svg">
<path d="M13 0.5C13.552 0.5 14 0.946 14 1.495V11.505C14 12.055 13.552 12.5 13 12.5C12.448 12.5 12 12.054 12 11.505V1.495C12 0.945 12.448 0.5 13 0.5ZM9 3.5C9.26522 3.5 9.51957 3.60536 9.70711 3.79289C9.89464 3.98043 10 4.23478 10 4.5V11.5C10 11.7652 9.89464 12.0196 9.70711 12.2071C9.51957 12.3946 9.26522 12.5 9 12.5C8.73478 12.5 8.48043 12.3946 8.29289 12.2071C8.10536 12.0196 8 11.7652 8 11.5V4.5C8 4.23478 8.10536 3.98043 8.29289 3.79289C8.48043 3.60536 8.73478 3.5 9 3.5ZM5 6.5C5.552 6.5 6 6.945 6 7.494V11.506C6 12.055 5.552 12.5 5 12.5C4.448 12.5 4 12.055 4 11.506V7.494C4.00039 7.36307 4.02657 7.2335 4.07704 7.11269C4.12751 6.99188 4.20128 6.88219 4.29413 6.78989C4.38699 6.69759 4.49712 6.62448 4.61824 6.57474C4.73935 6.525 4.86907 6.49961 5 6.5ZM1 9.5C1.552 9.5 2 9.94 2 10.484V11.516C1.99895 11.6463 1.97226 11.7751 1.92144 11.895C1.87061 12.015 1.79666 12.1237 1.7038 12.2151C1.61094 12.3065 1.50099 12.3787 1.38024 12.4276C1.25948 12.4764 1.13027 12.5011 1 12.5C0.448 12.5 0 12.06 0 11.516V10.484C0.00104635 10.3537 0.0277426 10.2249 0.0785644 10.105C0.129386 9.98503 0.203338 9.87626 0.296198 9.78488C0.389057 9.69351 0.499005 9.62132 0.619764 9.57244C0.740523 9.52356 0.869728 9.49894 1 9.5Z" fill="white"/>
</svg>
