<svg width="9" height="8" viewBox="0 0 9 8" fill="none" xmlns="http://www.w3.org/2000/svg">
<path d="M7.92857 0C8.244 0 8.5 0.297333 8.5 0.663333V7.33667C8.5 7.70333 8.244 8 7.92857 8C7.61314 8 7.35714 7.70267 7.35714 7.33667V0.663333C7.35714 0.296667 7.61314 0 7.92857 0ZM5.64286 2C5.79441 2 5.93975 2.07024 6.04692 2.19526C6.15408 2.32029 6.21429 2.48986 6.21429 2.66667V7.33333C6.21429 7.51014 6.15408 7.67971 6.04692 7.80474C5.93975 7.92976 5.79441 8 5.64286 8C5.4913 8 5.34596 7.92976 5.2388 7.80474C5.13163 7.67971 5.07143 7.51014 5.07143 7.33333V2.66667C5.07143 2.48986 5.13163 2.32029 5.2388 2.19526C5.34596 2.07024 5.4913 2 5.64286 2ZM3.35714 4C3.67257 4 3.92857 4.29667 3.92857 4.66267V7.33733C3.92857 7.70333 3.67257 8 3.35714 8C3.04171 8 2.78571 7.70333 2.78571 7.33733V4.66267C2.78594 4.57538 2.8009 4.489 2.82974 4.40846C2.85858 4.32792 2.90073 4.2548 2.95379 4.19326C3.00685 4.13173 3.06978 4.08299 3.13899 4.04983C3.2082 4.01667 3.28233 3.99974 3.35714 4ZM1.07143 6C1.38686 6 1.64286 6.29333 1.64286 6.656V7.344C1.64226 7.43085 1.627 7.51671 1.59796 7.59668C1.56892 7.67665 1.52666 7.74916 1.4736 7.81008C1.42054 7.87099 1.35771 7.91912 1.28871 7.95171C1.2197 7.98429 1.14587 8.0007 1.07143 8C0.756 8 0.5 7.70667 0.5 7.344V6.656C0.500598 6.56915 0.515853 6.48329 0.544894 6.40332C0.573935 6.32335 0.616193 6.25084 0.669256 6.18992C0.722318 6.12901 0.785146 6.08088 0.854151 6.04829C0.923156 6.01571 0.996987 5.9993 1.07143 6Z" fill="#FE5722"/>
</svg>
