<svg width="16" height="16" viewBox="0 0 16 16" fill="none" xmlns="http://www.w3.org/2000/svg">
<path fill-rule="evenodd" clip-rule="evenodd" d="M0.900637 14.9433C0.935886 15.0093 0.989136 15.0633 1.05514 15.0986C2.61964 15.9311 11.9789 13.0301 14.3999 11.6336C15.0306 11.2698 15.3119 10.8423 15.2346 10.3653C15.0119 8.98385 11.2896 7.93684 9.26989 7.46809L5.47714 11.2601C5.25739 11.4798 4.90114 11.4798 4.68139 11.2601C4.46164 11.0403 4.46164 10.6841 4.68139 10.4643L8.51089 6.63634C8.03014 4.5956 6.99439 0.984344 5.63464 0.765344C5.58364 0.757094 5.53264 0.752594 5.48239 0.752594C5.06689 0.752594 4.69188 1.03759 4.36714 1.60009C2.97064 4.01884 0.0673866 13.3766 0.900637 14.9433Z" fill="#1D1446"/>
</svg>
