<svg width="45" height="45" viewBox="0 0 45 45" fill="none" xmlns="http://www.w3.org/2000/svg">
<path fill-rule="evenodd" clip-rule="evenodd" d="M29.2404 23.7891H15.7029C14.9266 23.7891 14.2966 23.1591 14.2966 22.3828C14.2966 21.6066 14.9266 20.9766 15.7029 20.9766H29.2404C30.0166 20.9766 30.6466 21.6066 30.6466 22.3828C30.6466 23.1591 30.0166 23.7891 29.2404 23.7891ZM29.2404 30.8372H15.7029C14.9266 30.8372 14.2966 30.2072 14.2966 29.431C14.2966 28.6547 14.9266 28.0247 15.7029 28.0247H29.2404C30.0166 28.0247 30.6466 28.6547 30.6466 29.431C30.6466 30.2072 30.0166 30.8372 29.2404 30.8372ZM15.7029 13.9247H20.8685C21.6447 13.9247 22.2747 14.5547 22.2747 15.331C22.2747 16.1072 21.6447 16.7372 20.8685 16.7372H15.7029C14.9266 16.7372 14.2966 16.1072 14.2966 15.331C14.2966 14.5547 14.9266 13.9247 15.7029 13.9247ZM22.4997 4.21783C10.1904 4.21783 5.8291 9.00284 5.8291 22.501C5.8291 35.9972 10.1904 40.7822 22.4997 40.7822C34.8072 40.7822 39.1703 35.9972 39.1703 22.501C39.1703 9.00284 34.8072 4.21783 22.4997 4.21783Z" fill="#A29FB3"/>
</svg>
