<svg width="18" height="20" viewBox="0 0 18 20" fill="none" xmlns="http://www.w3.org/2000/svg">
<path fill-rule="evenodd" clip-rule="evenodd" d="M12.5949 10.688H5.37489C4.96089 10.688 4.62489 10.352 4.62489 9.938C4.62489 9.524 4.96089 9.188 5.37489 9.188H12.5949C13.0089 9.188 13.3449 9.524 13.3449 9.938C13.3449 10.352 13.0089 10.688 12.5949 10.688ZM12.5949 14.447H5.37489C4.96089 14.447 4.62489 14.111 4.62489 13.697C4.62489 13.283 4.96089 12.947 5.37489 12.947H12.5949C13.0089 12.947 13.3449 13.283 13.3449 13.697C13.3449 14.111 13.0089 14.447 12.5949 14.447ZM5.37489 5.427H8.12989C8.54389 5.427 8.87989 5.763 8.87989 6.177C8.87989 6.591 8.54389 6.927 8.12989 6.927H5.37489C4.96089 6.927 4.62489 6.591 4.62489 6.177C4.62489 5.763 4.96089 5.427 5.37489 5.427ZM8.99989 0.25C2.43489 0.25 0.108887 2.802 0.108887 10.001C0.108887 17.199 2.43489 19.751 8.99989 19.751C15.5639 19.751 17.8909 17.199 17.8909 10.001C17.8909 2.802 15.5639 0.25 8.99989 0.25Z" fill="#170D45"/>
</svg>
