<svg width="20" height="20" viewBox="0 0 20 20" fill="none" xmlns="http://www.w3.org/2000/svg">
<path fill-rule="evenodd" clip-rule="evenodd" d="M10.6301 0.820312C10.6301 0.410313 10.2901 0.0703125 9.88013 0.0703125C9.47013 0.0703125 9.13013 0.410313 9.13013 0.820312V4.71031C9.63013 4.69031 10.1301 4.69031 10.6301 4.70031V0.820312Z" fill="#F79022"/>
<path fill-rule="evenodd" clip-rule="evenodd" d="M14.42 4.83032H14.4C13.15 4.75032 11.9001 4.71031 10.6301 4.70031L10.63 11.0503L12.27 9.40032C12.56 9.11032 13.04 9.11032 13.33 9.40032C13.62 9.70032 13.62 10.1703 13.33 10.4603L10.41 13.3903C10.34 13.4603 10.26 13.5103 10.17 13.5503C10.08 13.5903 9.98 13.6103 9.88 13.6103C9.78 13.6103 9.68 13.5903 9.59 13.5503C9.5 13.5103 9.42 13.4603 9.35 13.3903L6.43 10.4603C6.14 10.1703 6.14 9.70032 6.43 9.40032C6.72 9.11032 7.2 9.11032 7.49 9.40032L9.13 11.0503L9.13013 4.71031C7.94013 4.71031 6.76 4.76032 5.58 4.83032C1.55 5.20032 0.25 7.03032 0.25 12.3303C0.25 19.9303 3.1 19.9303 10 19.9303C16.9 19.9303 19.75 19.9303 19.75 12.3303C19.75 7.03032 18.45 5.20032 14.42 4.83032Z" fill="#F79022"/>
</svg>
