<svg width="12" height="12" viewBox="0 0 12 12" fill="none" xmlns="http://www.w3.org/2000/svg">
<path fill-rule="evenodd" clip-rule="evenodd" d="M11.0724 10.4993H6.82103C6.54503 10.4993 6.32103 10.7233 6.32103 10.9993C6.32103 11.2753 6.54503 11.4993 6.82103 11.4993H11.0724C11.3484 11.4993 11.5724 11.2753 11.5724 10.9993C11.5724 10.7233 11.3484 10.4993 11.0724 10.4993Z" fill="#1D1446"/>
<path fill-rule="evenodd" clip-rule="evenodd" d="M4.24445 3.16039C4.31075 3.07221 4.43593 3.05437 4.52422 3.12051L7.97753 5.70745C8.066 5.77372 8.08393 5.89919 8.01756 5.98759L4.80443 10.2675C4.0311 11.3008 2.86443 11.5075 2.05777 11.5075C1.55777 11.5075 1.19777 11.4275 1.15777 11.4208C1.0711 11.4008 0.9911 11.3408 0.944434 11.2608C0.897767 11.1741 -0.2489 9.13415 1.0311 7.43415L4.24445 3.16039Z" fill="#1D1446"/>
<path fill-rule="evenodd" clip-rule="evenodd" d="M9.30444 4.27414L8.85776 4.86796C8.79145 4.95611 8.6663 4.97393 8.57802 4.9078L5.12415 2.32045C5.03588 2.25433 5.0178 2.12924 5.08372 2.04083L5.5311 1.44081C5.9911 0.820807 6.70444 0.494141 7.42444 0.494141C7.91777 0.494141 8.4111 0.647474 8.83777 0.967474C9.33777 1.34747 9.66444 1.90081 9.75777 2.52081C9.84444 3.14747 9.68444 3.76747 9.30444 4.27414Z" fill="#1D1446"/>
</svg>
