<svg width="18" height="18" viewBox="0 0 18 18" fill="none" xmlns="http://www.w3.org/2000/svg">
<path d="M14.877 7.86368C14.8595 7.99389 14.8048 8.11629 14.7195 8.21618L7.407 16.2487C7.31429 16.3685 7.18542 16.4553 7.0395 16.4962C6.97725 16.5037 6.91425 16.5037 6.852 16.4962C6.74588 16.4957 6.64107 16.4727 6.5445 16.4287C6.39414 16.3581 6.27431 16.2356 6.207 16.0837C6.14217 15.9484 6.12372 15.7955 6.1545 15.6487L6.7995 10.5037H4.077C3.92128 10.4947 3.76864 10.4565 3.627 10.3912C3.48815 10.3181 3.36917 10.2123 3.28032 10.0829C3.19147 9.95355 3.13542 9.80453 3.117 9.64868C3.10095 9.49049 3.12414 9.33078 3.1845 9.18368L6.0195 2.09618C6.0945 1.91693 6.219 1.76318 6.3795 1.65368C6.53974 1.54844 6.72782 1.49359 6.9195 1.49618H12.3495C12.5063 1.49918 12.66 1.53743 12.7995 1.60868C12.9405 1.68743 13.0613 1.79843 13.152 1.93118C13.236 2.06543 13.287 2.21618 13.302 2.37368C13.3181 2.53014 13.2922 2.68806 13.227 2.83118L11.4345 7.00868H14.172C14.308 7.01323 14.4403 7.05472 14.5545 7.12868C14.675 7.20919 14.7695 7.32286 14.8267 7.45596C14.884 7.58905 14.9014 7.73588 14.877 7.87868V7.86368Z" fill="#1D1446"/>
</svg>
