<svg width="20" height="20" viewBox="0 0 20 20" fill="none" xmlns="http://www.w3.org/2000/svg">
<path fill-rule="evenodd" clip-rule="evenodd" d="M5.44586 10.9522C5.84669 11.4422 6.86669 13.2576 7.08336 14.1667H12.9167C13.1334 13.2584 14.1521 11.443 14.5529 10.9534C15.2379 10.1179 15.6691 9.10352 15.7954 8.0305C15.9201 6.95955 15.7336 5.87536 15.2584 4.90758C14.7786 3.93262 14.0326 3.11339 13.1067 2.54467C12.1726 1.97016 11.0974 1.66623 10.0009 1.66675C8.90211 1.66675 7.82544 1.97092 6.89502 2.54383C5.96889 3.11235 5.22262 3.93142 4.74252 4.90633C4.26698 5.87373 4.08009 6.95762 4.20419 8.02842C4.32877 9.098 4.75919 10.1117 5.44586 10.9522ZM10.4167 5.00008L7.91669 8.75008H9.58336V11.2501L12.0834 7.50008H10.4167V5.00008Z" fill="#FE5722"/>
<path d="M7.08337 15.4167C7.08337 15.3062 7.12727 15.2002 7.20541 15.122C7.28355 15.0439 7.38953 15 7.50004 15H12.5C12.6105 15 12.7165 15.0439 12.7947 15.122C12.8728 15.2002 12.9167 15.3062 12.9167 15.4167C12.9167 15.5272 12.8728 15.6332 12.7947 15.7113C12.7165 15.7894 12.6105 15.8333 12.5 15.8333H7.50004C7.38953 15.8333 7.28355 15.7894 7.20541 15.7113C7.12727 15.6332 7.08337 15.5272 7.08337 15.4167ZM12.9167 16.6667H7.08337V17.5C7.08337 17.721 7.17117 17.933 7.32745 18.0893C7.48373 18.2455 7.69569 18.3333 7.91671 18.3333H12.0834C12.3044 18.3333 12.5163 18.2455 12.6726 18.0893C12.8289 17.933 12.9167 17.721 12.9167 17.5V16.6667Z" fill="#FE5722"/>
</svg>
