<svg width="16" height="16" viewBox="0 0 16 16" fill="none" xmlns="http://www.w3.org/2000/svg">
<path fill-rule="evenodd" clip-rule="evenodd" d="M4.35669 8.76183C4.67735 9.15383 5.49335 10.6062 5.66669 11.3335H10.3334C10.5067 10.6068 11.3217 9.1545 11.6424 8.76283C12.1903 8.09438 12.5353 7.28291 12.6364 6.4245C12.7361 5.56774 12.5869 4.70038 12.2067 3.92616C11.8229 3.14619 11.2261 2.49081 10.4854 2.03583C9.73812 1.57622 8.87796 1.33308 8.00069 1.3335C7.12169 1.3335 6.26035 1.57683 5.51602 2.03516C4.77511 2.48997 4.17809 3.14524 3.79402 3.92516C3.41359 4.69909 3.26407 5.56619 3.36335 6.42283C3.46302 7.2785 3.80735 8.0895 4.35669 8.76183ZM8.33335 4.00016L6.33335 7.00016H7.66669V9.00016L9.66669 6.00016H8.33335V4.00016Z" fill="#FE5722"/>
<path d="M5.66669 12.3333C5.66669 12.2449 5.70181 12.1601 5.76432 12.0976C5.82683 12.0351 5.91161 12 6.00002 12H10C10.0884 12 10.1732 12.0351 10.2357 12.0976C10.2982 12.1601 10.3334 12.2449 10.3334 12.3333C10.3334 12.4217 10.2982 12.5065 10.2357 12.569C10.1732 12.6315 10.0884 12.6667 10 12.6667H6.00002C5.91161 12.6667 5.82683 12.6315 5.76432 12.569C5.70181 12.5065 5.66669 12.4217 5.66669 12.3333ZM10.3334 13.3333H5.66669V14C5.66669 14.1768 5.73693 14.3464 5.86195 14.4714C5.98697 14.5964 6.15654 14.6667 6.33335 14.6667H9.66669C9.8435 14.6667 10.0131 14.5964 10.1381 14.4714C10.2631 14.3464 10.3334 14.1768 10.3334 14V13.3333Z" fill="#FE5722"/>
</svg>
