<svg width="24" height="25" viewBox="0 0 24 25" fill="none" xmlns="http://www.w3.org/2000/svg">
<path fill-rule="evenodd" clip-rule="evenodd" d="M6.535 13.6425C7.016 14.2305 8.24 16.409 8.5 17.5H15.5C15.76 16.41 16.9825 14.2315 17.4635 13.644C18.2855 12.6413 18.8029 11.4241 18.9545 10.1365C19.1041 8.85136 18.8803 7.55033 18.31 6.389C17.7343 5.21904 16.8391 4.23598 15.728 3.5535C14.6071 2.86409 13.3169 2.49938 12.001 2.5C10.6825 2.5 9.3905 2.865 8.274 3.5525C7.16264 4.23472 6.26711 5.21761 5.691 6.3875C5.12035 7.54838 4.89608 8.84904 5.045 10.134C5.1945 11.4175 5.711 12.634 6.535 13.6425ZM12.5 6.5L9.5 11H11.5V14L14.5 9.5H12.5V6.5Z" fill="white"/>
<path d="M8.5 19C8.5 18.8674 8.55268 18.7402 8.64645 18.6464C8.74021 18.5527 8.86739 18.5 9 18.5H15C15.1326 18.5 15.2598 18.5527 15.3536 18.6464C15.4473 18.7402 15.5 18.8674 15.5 19C15.5 19.1326 15.4473 19.2598 15.3536 19.3536C15.2598 19.4473 15.1326 19.5 15 19.5H9C8.86739 19.5 8.74021 19.4473 8.64645 19.3536C8.55268 19.2598 8.5 19.1326 8.5 19ZM15.5 20.5H8.5V21.5C8.5 21.7652 8.60536 22.0196 8.79289 22.2071C8.98043 22.3946 9.23478 22.5 9.5 22.5H14.5C14.7652 22.5 15.0196 22.3946 15.2071 22.2071C15.3946 22.0196 15.5 21.7652 15.5 21.5V20.5Z" fill="white"/>
</svg>
