<svg width="16" height="16" viewBox="0 0 16 16" fill="none" xmlns="http://www.w3.org/2000/svg">
<g clip-path="url(#clip0_12_940)">
<path d="M11.6864 9.7376C11.6864 10.4096 11.8776 10.6776 12.3776 10.6776C13.492 10.6776 14.2016 9.2576 14.2016 6.896C14.2016 3.2864 11.5712 1.5584 8.2872 1.5584C4.9088 1.5584 1.836 3.824 1.836 8.1056C1.836 12.1952 4.524 14.4224 8.652 14.4224C10.0536 14.4224 10.9944 14.2688 12.4336 13.7888L12.7424 15.0744C11.3216 15.536 9.8032 15.6696 8.6328 15.6696C3.2184 15.6696 0.318401 12.6936 0.318401 8.1048C0.318401 3.4776 3.6792 0.328796 8.3064 0.328796C13.1256 0.328796 15.6784 3.2088 15.6784 6.7416C15.6784 9.7368 14.7384 12.0216 11.7816 12.0216C10.4368 12.0216 9.5544 11.484 9.4392 10.2928C9.0936 11.6176 8.172 12.0216 6.9232 12.0216C5.2528 12.0216 3.8512 10.7344 3.8512 8.1432C3.8512 5.532 5.0808 3.9192 7.2888 3.9192C8.46 3.9192 9.1896 4.38 9.5144 5.1096L10.072 4.092H11.6848V9.7376H11.6864ZM9.3256 7.2032C9.3256 6.148 8.5376 5.7056 7.8848 5.7056C7.1744 5.7056 6.388 6.2808 6.388 7.9712C6.388 9.3152 6.9832 10.064 7.8848 10.064C8.5184 10.064 9.3256 9.6608 9.3256 8.5472V7.2032Z" fill="#591E0C"/>
</g>
<defs>
<clipPath id="clip0_12_940">
<rect width="16" height="16" fill="white"/>
</clipPath>
</defs>
</svg>
