<svg width="20" height="20" viewBox="0 0 20 20" fill="none" xmlns="http://www.w3.org/2000/svg">
<g clip-path="url(#clip0_93_1305)">
<path d="M18.3333 6.27905V14.1666C18.3333 14.8042 18.0897 15.4178 17.6522 15.8818C17.2148 16.3457 16.6165 16.625 15.98 16.6624L15.8333 16.6666H4.16663C3.52895 16.6666 2.91536 16.4229 2.45141 15.9855C1.98745 15.548 1.7082 14.9498 1.67079 14.3132L1.66663 14.1666V6.27905L9.53746 11.5266L9.63413 11.5816C9.74805 11.6372 9.87317 11.6661 9.99996 11.6661C10.1268 11.6661 10.2519 11.6372 10.3658 11.5816L10.4625 11.5266L18.3333 6.27905Z" fill="#FE5722"/>
<path d="M15.8333 3.33325C16.7333 3.33325 17.5225 3.80825 17.9625 4.52242L9.99998 9.83075L2.03748 4.52242C2.24642 4.18306 2.53349 3.89859 2.87473 3.69274C3.21598 3.48689 3.6015 3.36563 3.99914 3.33909L4.16664 3.33325H15.8333Z" fill="#FFCBBA"/>
</g>
<defs>
<clipPath id="clip0_93_1305">
<rect width="20" height="20" fill="white"/>
</clipPath>
</defs>
</svg>
