<svg width="24" height="24" viewBox="0 0 24 24" fill="none" xmlns="http://www.w3.org/2000/svg">
<path fill-rule="evenodd" clip-rule="evenodd" d="M18.1451 9.53C17.7931 9.952 14.6341 13.653 12.0111 13.653C9.39107 13.653 6.20007 9.955 5.84407 9.533C5.57807 9.216 5.61807 8.743 5.93507 8.476C6.25107 8.208 6.72407 8.25 6.99107 8.566C8.16207 9.953 10.5591 12.153 12.0111 12.153C13.4621 12.153 15.8371 9.955 16.9931 8.569C17.2581 8.252 17.7311 8.21 18.0491 8.473C18.3671 8.739 18.4101 9.212 18.1451 9.53ZM12.0001 2.383C4.59907 2.383 1.97607 4.899 1.97607 12C1.97607 19.1 4.59907 21.617 12.0001 21.617C19.4011 21.617 22.0241 19.1 22.0241 12C22.0241 4.899 19.4011 2.383 12.0001 2.383Z" fill="#A29FB3"/>
</svg>
