<svg width="16" height="16" viewBox="0 0 16 16" fill="none" xmlns="http://www.w3.org/2000/svg">
<path d="M2.66666 3.50016C2.66666 2.92553 2.89493 2.37443 3.30126 1.9681C3.70759 1.56177 4.25869 1.3335 4.83332 1.3335H8.47599C8.76063 1.33343 9.04249 1.38944 9.30547 1.49834C9.56845 1.60724 9.8074 1.76689 10.0087 1.96816L12.6987 4.65816C13.1053 5.06483 13.3333 5.61616 13.3333 6.19083V12.5002C13.3333 12.7847 13.2773 13.0664 13.1684 13.3293C13.0595 13.5922 12.8999 13.831 12.6987 14.0322C12.4975 14.2334 12.2587 14.393 11.9958 14.5019C11.7329 14.6108 11.4512 14.6668 11.1667 14.6668H4.83332C4.54879 14.6668 4.26705 14.6108 4.00418 14.5019C3.7413 14.393 3.50245 14.2334 3.30126 14.0322C3.10006 13.831 2.94047 13.5922 2.83158 13.3293C2.7227 13.0664 2.66666 12.7847 2.66666 12.5002V3.50016ZM5.16666 9.3335H7.99999V7.16683H6.16666C5.90144 7.16683 5.64709 7.27219 5.45955 7.45972C5.27201 7.64726 5.16666 7.90161 5.16666 8.16683V9.3335ZM5.16666 10.3335V11.1668C5.16666 11.432 5.27201 11.6864 5.45955 11.8739C5.64709 12.0615 5.90144 12.1668 6.16666 12.1668H7.99999V10.3335H5.16666ZM8.99999 12.1668H9.83332C10.0985 12.1668 10.3529 12.0615 10.5404 11.8739C10.728 11.6864 10.8333 11.432 10.8333 11.1668V8.16683C10.8333 7.90161 10.728 7.64726 10.5404 7.45972C10.3529 7.27219 10.0985 7.16683 9.83332 7.16683H8.99999V12.1668Z" fill="#FE5722"/>
</svg>
