<svg width="20" height="20" viewBox="0 0 20 20" fill="none" xmlns="http://www.w3.org/2000/svg">
<path d="M10.0001 3.50049L0.878418 6.92119L10.0001 11.482L14.3446 9.30975L10.2689 8.06365C10.185 8.1039 10.0931 8.12489 10.0001 8.1251C9.8343 8.1251 9.67533 8.05925 9.55812 7.94204C9.44091 7.82483 9.37506 7.66586 9.37506 7.5001C9.37506 7.33434 9.44091 7.17537 9.55812 7.05816C9.67533 6.94095 9.8343 6.8751 10.0001 6.8751L9.8967 7.21111L10.6208 7.43389C10.6209 7.43462 10.621 7.43534 10.6211 7.43607L11.6896 7.76283L17.7735 9.63467V10.1091C17.6894 10.1664 17.6205 10.2433 17.5728 10.3332C17.5252 10.4232 17.5002 10.5234 17.5001 10.6251C17.5002 10.7292 17.5263 10.8317 17.576 10.9231C17.6258 11.0146 17.6976 11.0922 17.7849 11.1488C17.5005 12.224 17.5001 14.6635 17.5001 15.6251C18.1251 16.0312 18.1251 16.046 18.7501 15.6251C18.7501 14.6636 18.7497 12.2246 18.4653 11.1492C18.5527 11.0925 18.6245 11.0148 18.6742 10.9233C18.724 10.8318 18.75 10.7293 18.7501 10.6251C18.75 10.5232 18.7251 10.4229 18.6775 10.3328C18.6298 10.2428 18.5609 10.1657 18.4766 10.1084V9.11545L16.1593 8.40244L19.1217 6.92119L10.0001 3.50049ZM4.67283 9.72666L4.16021 12.8024C5.18268 12.9362 6.40576 13.5304 7.53014 14.2332C8.16959 14.6329 8.76854 15.0716 9.25498 15.4972C9.55232 15.7574 9.80096 16.007 10.0001 16.2526C10.1992 16.007 10.4478 15.7574 10.7451 15.4972C11.2316 15.0716 11.8305 14.6329 12.47 14.2332C13.5944 13.5304 14.8174 12.9362 15.8399 12.8024L15.3272 9.72666H15.0831L10.0001 12.2682L4.91697 9.72666H4.67283Z" fill="#FE5722"/>
</svg>
