<svg width="18" height="18" viewBox="0 0 18 18" fill="none" xmlns="http://www.w3.org/2000/svg">
<path fill-rule="evenodd" clip-rule="evenodd" d="M9.00003 7.19072C8.00253 7.19072 7.19103 8.00222 7.19103 8.99972C7.19103 9.99722 8.00253 10.8087 9.00003 10.8087C9.99753 10.8087 10.809 9.99722 10.809 8.99972C10.809 8.00222 9.99753 7.19072 9.00003 7.19072Z" fill="#A29FB3"/>
<path fill-rule="evenodd" clip-rule="evenodd" d="M9.00004 11.9339C7.38228 11.9339 6.06604 10.6177 6.06604 8.99994C6.06604 7.38219 7.38228 6.06594 9.00004 6.06594C10.6178 6.06594 11.934 7.38219 11.934 8.99994C11.934 10.6177 10.6178 11.9339 9.00004 11.9339ZM9.00004 3.14844C4.94854 3.14844 1.68604 6.34944 1.68604 8.99994C1.68604 11.6504 4.94854 14.8514 9.00004 14.8514C13.0515 14.8514 16.314 11.6504 16.314 8.99994C16.314 6.34944 13.0515 3.14844 9.00004 3.14844Z" fill="#A29FB3"/>
</svg>
