<svg width="48" height="48" viewBox="0 0 48 48" fill="none" xmlns="http://www.w3.org/2000/svg">
<path d="M22 27.5H24V19.5M32 19V16M18 33C21 36 27 36 30 33M16 19V16M18.8 42C14.32 42 12.08 42 10.368 41.128C8.86277 40.361 7.63898 39.1372 6.872 37.632C6 35.92 6 33.68 6 29.2M42 29.2C42 33.68 42 35.92 41.128 37.632C40.361 39.1372 39.1372 40.361 37.632 41.128C35.92 42 33.68 42 29.2 42M29.2 6C33.68 6 35.92 6 37.632 6.872C39.1372 7.63898 40.361 8.86277 41.128 10.368C42 12.08 42 14.32 42 18.8M18.8 6C14.32 6 12.08 6 10.368 6.872C8.86277 7.63898 7.63898 8.86277 6.872 10.368C6 12.08 6 14.32 6 18.8" stroke="#7C7794" stroke-width="3" stroke-linecap="round" stroke-linejoin="round"/>
</svg>
