<svg width="20" height="20" viewBox="0 0 20 20" fill="none" xmlns="http://www.w3.org/2000/svg">
<path fill-rule="evenodd" clip-rule="evenodd" d="M17.023 0.904457C15.528 0.499457 13.324 0.501457 10.268 0.500457H9.729C6.682 0.489457 4.47 0.499457 2.976 0.904457C1.287 1.36246 0.5 2.37846 0.5 4.10046C0.5 6.23846 2.427 7.87646 4.29 9.46046C5.932 10.8545 7.483 12.1735 7.483 13.5985C7.483 17.0245 7.483 19.5005 10.003 19.5005C12.517 19.5005 12.517 17.0245 12.517 13.5985C12.517 12.1735 14.067 10.8545 15.71 9.46046C17.573 7.87646 19.5 6.23846 19.5 4.10046C19.5 2.37846 18.712 1.36246 17.023 0.904457Z" fill="#7C7794"/>
</svg>
