<svg width="48" height="48" viewBox="0 0 48 48" fill="none" xmlns="http://www.w3.org/2000/svg">
<path d="M14.9 9.8169C17.29 8.3609 20.703 7.5869 24.258 7.7049C27.808 7.8239 31.351 8.8279 34.016 10.7619C34.2844 10.9566 34.6191 11.0366 34.9465 10.9845C35.274 10.9324 35.5673 10.7523 35.762 10.4839C35.9566 10.2155 36.0367 9.88076 35.9846 9.55332C35.9324 9.22588 35.7524 8.93257 35.484 8.7379C32.324 6.4459 28.264 5.3379 24.342 5.2069C20.427 5.0759 16.502 5.9139 13.6 7.6829C13.4543 7.76551 13.3268 7.87654 13.2249 8.00939C13.123 8.14224 13.0488 8.2942 13.0068 8.45626C12.9648 8.61832 12.9557 8.78718 12.9802 8.9528C13.0047 9.11843 13.0621 9.27745 13.1492 9.42044C13.2364 9.56342 13.3513 9.68745 13.4872 9.78516C13.6232 9.88287 13.7774 9.95227 13.9407 9.98925C14.104 10.0262 14.273 10.03 14.4378 10.0004C14.6026 9.97081 14.7598 9.90841 14.9 9.8169ZM25.397 11.0049C25.0677 10.9659 24.7364 11.0593 24.476 11.2646C24.2156 11.4698 24.0474 11.7701 24.0085 12.0994C23.9695 12.4287 24.0629 12.7599 24.2681 13.0203C24.4734 13.2807 24.7737 13.4489 25.103 13.4879C32.932 14.4179 38.027 20.4639 39.519 28.9659C39.5813 29.2876 39.7674 29.572 40.0374 29.7579C40.3073 29.9437 40.6394 30.0161 40.9622 29.9594C41.285 29.9028 41.5726 29.7217 41.7632 29.455C41.9537 29.1884 42.0319 28.8576 41.981 28.5339C40.357 19.2789 34.626 12.1009 25.397 11.0049ZM18.695 21.0849C14.878 24.1399 12.693 30.7549 16.87 39.1949C17.0144 39.4916 17.0357 39.8334 16.9292 40.1458C16.8226 40.4581 16.5968 40.7156 16.3011 40.8622C16.0054 41.0087 15.6638 41.0323 15.3507 40.9279C15.0376 40.8236 14.7785 40.5996 14.63 40.3049C10.046 31.0439 12.21 23.0719 17.133 19.1329C19.572 17.1809 22.655 16.2679 25.765 16.7559C28.885 17.2459 31.91 19.1279 34.276 22.5369C34.3728 22.6716 34.442 22.8242 34.4793 22.9858C34.5166 23.1475 34.5213 23.3149 34.4932 23.4784C34.4652 23.6419 34.4048 23.7982 34.3158 23.9381C34.2267 24.0781 34.1106 24.1989 33.9744 24.2935C33.8381 24.3882 33.6844 24.4548 33.5222 24.4894C33.3599 24.524 33.1924 24.526 33.0294 24.4952C32.8664 24.4644 32.7111 24.4015 32.5727 24.3101C32.4342 24.2187 32.3153 24.1007 32.223 23.9629C30.189 21.0329 27.731 19.5959 25.377 19.2259C23.011 18.8539 20.627 19.5389 18.695 21.0849ZM23.374 41.1949C20.814 36.0249 20.034 31.6549 20.498 28.7619C20.728 27.3279 21.248 26.3489 21.901 25.7609C22.532 25.1939 23.411 24.8789 24.632 24.9939C26.256 25.1479 27.015 25.6819 27.484 26.3189C28.026 27.0549 28.312 28.0889 28.638 29.5619L28.736 30.0089C29.341 32.7929 30.141 36.4659 34.022 39.2639C34.2909 39.4578 34.6258 39.5369 34.9531 39.4838C35.2803 39.4307 35.5731 39.2498 35.767 38.9809C35.9608 38.712 36.0399 38.377 35.9869 38.0498C35.9338 37.7225 35.7529 37.4298 35.484 37.2359C32.394 35.0079 31.774 32.1879 31.158 29.3819L31.078 29.0219C30.768 27.6199 30.4 26.0619 29.497 24.8369C28.521 23.5119 27.044 22.7119 24.868 22.5059C23.058 22.3339 21.455 22.8009 20.231 23.9009C19.03 24.9809 18.321 26.5509 18.029 28.3659C17.451 31.9709 18.452 36.8879 21.133 42.3039C21.2853 42.5916 21.5439 42.8086 21.8537 42.9086C22.1635 43.0086 22.5001 42.9838 22.7919 42.8395C23.0837 42.6951 23.3077 42.4426 23.4162 42.1357C23.5247 41.8287 23.5092 41.4916 23.373 41.1959M11.688 10.9239C11.9072 11.1724 12.0188 11.4979 11.9982 11.8287C11.9776 12.1595 11.8264 12.4685 11.578 12.6879C9.98096 14.0969 8.90396 15.5149 7.83396 17.3749C7.75202 17.5172 7.64285 17.6419 7.51269 17.742C7.38253 17.8421 7.23393 17.9156 7.07538 17.9583C6.91682 18.001 6.75141 18.012 6.5886 17.9907C6.42578 17.9695 6.26875 17.9163 6.12646 17.8344C5.98417 17.7525 5.85942 17.6433 5.75932 17.5131C5.65923 17.383 5.58575 17.2344 5.54308 17.0758C5.50041 16.9173 5.48939 16.7518 5.51064 16.589C5.5319 16.4262 5.58502 16.2692 5.66696 16.1269C6.84296 14.0839 8.08296 12.4369 9.92296 10.8139C10.046 10.7052 10.1894 10.6218 10.3447 10.5684C10.5 10.5151 10.6643 10.4929 10.8283 10.5032C10.9922 10.5134 11.1525 10.5558 11.3 10.628C11.4475 10.7002 11.5793 10.8007 11.688 10.9239ZM36.235 28.5589C36.1793 28.2356 35.9989 27.9472 35.7325 27.7558C35.4661 27.5644 35.1352 27.4854 34.8111 27.5358C34.4869 27.5862 34.1956 27.7619 33.9999 28.0252C33.8042 28.2884 33.7198 28.618 33.765 28.9429C34.275 32.2199 35.97 34.2899 38.02 35.7659C38.1533 35.8618 38.3041 35.9304 38.464 35.968C38.6238 36.0056 38.7895 36.0113 38.9515 35.9848C39.1135 35.9583 39.2688 35.9002 39.4083 35.8138C39.5479 35.7273 39.6691 35.6142 39.765 35.4809C39.8608 35.3476 39.9295 35.1967 39.9671 35.0369C40.0046 34.8771 40.0103 34.7114 39.9839 34.5494C39.9574 34.3873 39.8993 34.2321 39.8128 34.0925C39.7264 33.9529 39.6133 33.8318 39.48 33.7359C37.855 32.5659 36.622 31.0419 36.235 28.5589ZM24.157 28.5039C24.3207 28.4916 24.4853 28.5117 24.6413 28.5631C24.7973 28.6145 24.9416 28.6961 25.0661 28.8032C25.1905 28.9104 25.2926 29.041 25.3666 29.1877C25.4405 29.3343 25.4848 29.4941 25.497 29.6579C25.802 33.7329 27.294 37.1849 29.691 39.9279C29.8025 40.0509 29.8884 40.1949 29.9436 40.3515C29.9989 40.5081 30.0224 40.6742 30.0128 40.84C30.0031 41.0057 29.9606 41.1679 29.8875 41.3171C29.8145 41.4662 29.7125 41.5993 29.5875 41.7086C29.4625 41.8179 29.3169 41.9012 29.1593 41.9536C29.0018 42.006 28.8353 42.0265 28.6698 42.0138C28.5042 42.0012 28.3428 41.9557 28.195 41.88C28.0472 41.8043 27.916 41.6999 27.809 41.5729C25.047 38.4129 23.349 34.4469 23.004 29.8439C22.9917 29.6802 23.0118 29.5157 23.0631 29.3598C23.1144 29.2038 23.1959 29.0595 23.3029 28.9351C23.41 28.8107 23.5405 28.7085 23.6871 28.6346C23.8336 28.5606 23.9933 28.5162 24.157 28.5039ZM20.235 13.9039C20.5406 13.7753 20.7827 13.5305 20.9078 13.2234C21.033 12.9163 21.0311 12.5721 20.9025 12.2664C20.7738 11.9607 20.529 11.7187 20.222 11.5935C19.9149 11.4683 19.5706 11.4703 19.265 11.5989C10.294 15.3719 5.82096 23.8129 7.00996 33.8959C7.02913 34.0589 7.08023 34.2166 7.16034 34.3599C7.24044 34.5032 7.34798 34.6293 7.47683 34.731C7.60567 34.8327 7.75328 34.9081 7.91125 34.9528C8.06921 34.9974 8.23443 35.0106 8.39746 34.9914C8.5605 34.9722 8.71816 34.9211 8.86145 34.841C9.00474 34.7609 9.13085 34.6534 9.23257 34.5245C9.3343 34.3957 9.40965 34.2481 9.45433 34.0901C9.49901 33.9321 9.51213 33.7669 9.49296 33.6039C8.41996 24.5039 12.4 17.1989 20.236 13.9019" fill="#7C7794"/>
</svg>
