<svg width="24" height="24" viewBox="0 0 24 24" fill="none" xmlns="http://www.w3.org/2000/svg">
<path fill-rule="evenodd" clip-rule="evenodd" d="M11.9999 4C9.87815 4 7.84332 4.84285 6.34303 6.34315C4.84274 7.84344 3.99988 9.87827 3.99988 12C3.99988 13.638 4.27988 15.208 4.79588 16.667C4.84398 16.7918 4.86658 16.9249 4.86233 17.0585C4.85808 17.1922 4.82707 17.3236 4.77114 17.4451C4.7152 17.5665 4.63548 17.6755 4.53669 17.7656C4.4379 17.8557 4.32204 17.9251 4.19597 17.9696C4.06989 18.0142 3.93617 18.033 3.8027 18.0249C3.66923 18.0169 3.53873 17.9822 3.41892 17.9228C3.29911 17.8635 3.19241 17.7807 3.10515 17.6794C3.01789 17.5781 2.95183 17.4603 2.91088 17.333C2.30669 15.6199 1.99862 13.8165 1.99988 12C1.99988 6.477 6.47688 2 11.9999 2C17.5229 2 21.9999 6.477 21.9999 12C21.9999 13.0609 21.5785 14.0783 20.8283 14.8284C20.0782 15.5786 19.0607 16 17.9999 16C17.0645 16.0001 16.1595 15.6683 15.4459 15.0636C14.7322 14.459 14.2563 13.6207 14.1029 12.698L13.9249 11.63C13.8491 11.1743 13.614 10.7603 13.2614 10.4618C12.9089 10.1633 12.4618 9.99966 11.9999 10C11.4694 10 10.9607 10.2107 10.5857 10.5858C10.2106 10.9609 9.99988 11.4696 9.99988 12C9.99931 13.6604 10.5154 15.2798 11.4765 16.6337C12.4376 17.9876 13.7962 19.0089 15.3639 19.556C15.49 19.5976 15.6065 19.6639 15.7067 19.751C15.8069 19.8381 15.8887 19.9443 15.9474 20.0634C16.0062 20.1824 16.0406 20.312 16.0487 20.4445C16.0568 20.577 16.0385 20.7099 15.9947 20.8352C15.9509 20.9605 15.8827 21.0759 15.7939 21.1746C15.705 21.2733 15.5975 21.3533 15.4774 21.41C15.3573 21.4666 15.2272 21.4988 15.0946 21.5047C14.9619 21.5105 14.8295 21.4899 14.7049 21.444C12.7455 20.7602 11.0474 19.4837 9.84595 17.7915C8.64455 16.0993 7.99937 14.0753 7.99988 12C7.99988 10.9391 8.42131 9.92172 9.17145 9.17157C9.9216 8.42143 10.939 8 11.9999 8C12.9352 7.99988 13.8403 8.33169 14.5539 8.93636C15.2675 9.54103 15.7434 10.3793 15.8969 11.302L16.0749 12.37C16.2319 13.31 17.0459 14 17.9999 14C18.5303 14 19.039 13.7893 19.4141 13.4142C19.7892 13.0391 19.9999 12.5304 19.9999 12C19.9999 9.87827 19.157 7.84344 17.6567 6.34315C16.1564 4.84285 14.1216 4 11.9999 4ZM11.9999 7C10.6738 7 9.40203 7.52678 8.46435 8.46447C7.52667 9.40215 6.99988 10.6739 6.99988 12C6.99988 15.285 8.43888 18.233 10.7239 20.25C10.9228 20.4254 11.0439 20.6727 11.0605 20.9374C11.0771 21.2021 10.9878 21.4626 10.8124 21.6615C10.6369 21.8604 10.3897 21.9815 10.125 21.9981C9.86025 22.0147 9.59979 21.9254 9.40088 21.75C8.01615 20.5313 6.90731 19.0312 6.14839 17.3499C5.38946 15.6685 4.99792 13.8447 4.99988 12C4.99988 10.1435 5.73738 8.36301 7.05013 7.05025C8.36289 5.7375 10.1434 5 11.9999 5C13.8564 5 15.6369 5.7375 16.9496 7.05025C18.2624 8.36301 18.9999 10.1435 18.9999 12C18.9999 12.2652 18.8945 12.5196 18.707 12.7071C18.5195 12.8946 18.2651 13 17.9999 13C17.7347 13 17.4803 12.8946 17.2928 12.7071C17.1052 12.5196 16.9999 12.2652 16.9999 12C16.9999 10.6739 16.4731 9.40215 15.5354 8.46447C14.5977 7.52678 13.326 7 11.9999 7ZM11.9999 11C12.2651 11 12.5195 11.1054 12.707 11.2929C12.8945 11.4804 12.9999 11.7348 12.9999 12C12.9999 12.7272 13.1585 13.4456 13.4647 14.1052C13.7708 14.7648 14.2172 15.3497 14.7726 15.8191C15.3281 16.2884 15.9792 16.631 16.6806 16.8229C17.382 17.0147 18.1169 17.0513 18.8339 16.93C19.0955 16.886 19.3639 16.9477 19.5801 17.1016C19.7962 17.2554 19.9424 17.4889 19.9864 17.7505C20.0304 18.0121 19.9687 18.2805 19.8148 18.4967C19.6609 18.7128 19.4275 18.859 19.1659 18.903C18.1621 19.0726 17.1334 19.0212 16.1516 18.7524C15.1697 18.4836 14.2583 18.0039 13.4808 17.3467C12.7034 16.6895 12.0787 15.8706 11.6502 14.9472C11.2217 14.0238 10.9998 13.018 10.9999 12C10.9999 11.7348 11.1052 11.4804 11.2928 11.2929C11.4803 11.1054 11.7347 11 11.9999 11Z" fill="#170D45"/>
</svg>
