<svg width="40" height="40" viewBox="0 0 40 40" fill="none" xmlns="http://www.w3.org/2000/svg">
<path d="M9.17169 7.71159L9.16669 11.2499V28.7566C9.16669 30.1932 9.73737 31.5709 10.7532 32.5867C11.769 33.6026 13.1468 34.1733 14.5834 34.1733H28.9434C28.6846 34.9044 28.2056 35.5374 27.5722 35.9851C26.9388 36.4328 26.1823 36.6732 25.4067 36.6733H14.5834C12.4837 36.6733 10.4701 35.8392 8.98543 34.3545C7.50076 32.8699 6.66669 30.8562 6.66669 28.7566V11.2499C6.66669 9.61659 7.71169 8.22492 9.17169 7.71159ZM29.5834 3.33325C30.0758 3.33325 30.5634 3.43025 31.0184 3.6187C31.4734 3.80716 31.8868 4.08338 32.235 4.4316C32.5832 4.77982 32.8594 5.19322 33.0479 5.64819C33.2364 6.10316 33.3334 6.5908 33.3334 7.08325V28.7499C33.3334 29.2424 33.2364 29.73 33.0479 30.185C32.8594 30.64 32.5832 31.0534 32.235 31.4016C31.8868 31.7498 31.4734 32.026 31.0184 32.2145C30.5634 32.4029 30.0758 32.4999 29.5834 32.4999H14.5834C13.5888 32.4999 12.635 32.1048 11.9317 31.4016C11.2284 30.6983 10.8334 29.7445 10.8334 28.7499V7.08325C10.8334 6.08869 11.2284 5.13486 11.9317 4.4316C12.635 3.72834 13.5888 3.33325 14.5834 3.33325H29.5834Z" fill="#FE5722"/>
</svg>
