<svg width="18" height="18" viewBox="0 0 18 18" fill="none" xmlns="http://www.w3.org/2000/svg">
<path fill-rule="evenodd" clip-rule="evenodd" d="M6.6285 4.89249C7.563 4.89249 8.32425 5.65374 8.32425 6.58824C8.32425 7.52274 7.563 8.28324 6.6285 8.28324C5.694 8.28324 4.93275 7.52274 4.93275 6.58824C4.93275 5.65374 5.694 4.89249 6.6285 4.89249ZM4.857 10.9697C5.74575 10.5527 6.46425 10.8107 7.1595 11.0612C7.68375 11.2502 8.22675 11.4452 8.9775 11.4452C9.561 11.4452 9.90525 10.93 10.4025 10.0795C10.8975 9.23424 11.5133 8.18199 12.7568 8.18199C14.4847 8.18199 15.5557 9.27174 16.2817 10.075C16.3005 9.73149 16.3125 9.37599 16.3125 9.00024C16.3125 3.60099 14.3985 1.68774 9 1.68774C3.6015 1.68774 1.6875 3.60099 1.6875 9.00024C1.6875 11.014 1.9545 12.5425 2.5695 13.6682C2.9565 12.9055 3.798 11.467 4.857 10.9697Z" fill="black"/>
<path fill-rule="evenodd" clip-rule="evenodd" d="M15.9236 11.3488C15.8134 11.2355 15.6964 11.1058 15.5711 10.9655C14.9081 10.2268 14.0824 9.30653 12.7564 9.30653C12.1984 9.30653 11.8616 9.81353 11.3741 10.6475C10.8724 11.5048 10.2491 12.5705 8.97712 12.5705C8.02987 12.5705 7.33612 12.3208 6.77812 12.119C6.12112 11.882 5.78212 11.777 5.33587 11.9878C4.48687 12.3868 3.63487 13.9963 3.37837 14.5828C3.36337 14.6188 3.34012 14.648 3.31837 14.6795C4.47112 15.8338 6.29962 16.3123 9.00037 16.3123C13.4696 16.3123 15.5456 14.9938 16.1299 11.4793C16.0541 11.4508 15.9836 11.4103 15.9236 11.3488Z" fill="black"/>
</svg>
