<svg width="16" height="16" viewBox="0 0 16 16" fill="none" xmlns="http://www.w3.org/2000/svg">
<path d="M3.33331 8.00016H2.66665V13.3335C2.66665 13.6871 2.80712 14.0263 3.05717 14.2763C3.30722 14.5264 3.64636 14.6668 3.99998 14.6668H7.33331V8.00016H3.33331ZM12 8.00016H8.66665V14.6668H12C12.3536 14.6668 12.6927 14.5264 12.9428 14.2763C13.1928 14.0263 13.3333 13.6871 13.3333 13.3335V8.00016H12ZM12.5273 4.66683C12.6251 4.34269 12.6721 4.00536 12.6666 3.66683C12.6666 2.38016 11.62 1.3335 10.3333 1.3335C9.25198 1.3335 8.52998 2.3215 8.06398 3.39016C7.60465 2.38016 6.84598 1.3335 5.66665 1.3335C4.37998 1.3335 3.33331 2.38016 3.33331 3.66683C3.33331 4.06416 3.38598 4.39283 3.47265 4.66683H1.33331V7.3335H7.33331V6.00016H8.66665V7.3335H14.6666V4.66683H12.5273ZM4.66665 3.66683C4.66665 3.1155 5.11531 2.66683 5.66665 2.66683C6.25865 2.66683 6.80931 3.6835 7.13198 4.66683H5.33331C5.08398 4.66683 4.66665 4.66683 4.66665 3.66683ZM10.3333 2.66683C10.8846 2.66683 11.3333 3.1155 11.3333 3.66683C11.3333 4.66683 10.916 4.66683 10.6666 4.66683H9.01531C9.35531 3.61616 9.84931 2.66683 10.3333 2.66683Z" fill="#FE5722"/>
</svg>
