<svg width="20" height="16" viewBox="0 0 20 16" fill="none" xmlns="http://www.w3.org/2000/svg">
<path d="M11.25 2.25C11.25 1.91848 11.1183 1.60054 10.8839 1.36612C10.6495 1.1317 10.3315 1 10 1C9.66848 1 9.35054 1.1317 9.11612 1.36612C8.8817 1.60054 8.75 1.91848 8.75 2.25C8.75 2.58152 8.8817 2.89946 9.11612 3.13388C9.35054 3.3683 9.66848 3.5 10 3.5C10.3315 3.5 10.6495 3.3683 10.8839 3.13388C11.1183 2.89946 11.25 2.58152 11.25 2.25ZM4.5 6.5C4.83152 6.5 5.14946 6.3683 5.38388 6.13388C5.6183 5.89946 5.75 5.58152 5.75 5.25C5.75 4.91848 5.6183 4.60054 5.38388 4.36612C5.14946 4.1317 4.83152 4 4.5 4C4.16848 4 3.85054 4.1317 3.61612 4.36612C3.3817 4.60054 3.25 4.91848 3.25 5.25C3.25 5.58152 3.3817 5.89946 3.61612 6.13388C3.85054 6.3683 4.16848 6.5 4.5 6.5ZM1 13C0.446875 13 0 13.4469 0 14C0 14.5531 0.446875 15 1 15H19C19.5531 15 20 14.5531 20 14C20 13.4469 19.5531 13 19 13H1ZM15.5 6.5C15.8315 6.5 16.1495 6.3683 16.3839 6.13388C16.6183 5.89946 16.75 5.58152 16.75 5.25C16.75 4.91848 16.6183 4.60054 16.3839 4.36612C16.1495 4.1317 15.8315 4 15.5 4C15.1685 4 14.8505 4.1317 14.6161 4.36612C14.3817 4.60054 14.25 4.91848 14.25 5.25C14.25 5.58152 14.3817 5.89946 14.6161 6.13388C14.8505 6.3683 15.1685 6.5 15.5 6.5ZM6.25 9.79688L7.09062 11.3562C7.2875 11.7219 7.74062 11.8563 8.10625 11.6625C8.47188 11.4688 8.60625 11.0125 8.4125 10.6469L7.27812 8.5375C7.33125 8.48438 7.37812 8.425 7.4125 8.35625L8.25 6.79688V8.5C8.25 9.05313 8.69687 9.5 9.25 9.5H10.75C11.3031 9.5 11.75 9.05313 11.75 8.5V6.79688L12.5906 8.35625C12.6281 8.425 12.6719 8.48438 12.725 8.5375L11.5906 10.6469C11.3938 11.0125 11.5312 11.4656 11.8969 11.6625C12.2625 11.8594 12.7156 11.7219 12.9125 11.3562L13.75 9.79688V11C13.75 11.5531 14.1969 12 14.75 12H16.25C16.8031 12 17.25 11.5531 17.25 11V9.79688L18.0906 11.3562C18.2875 11.7219 18.7406 11.8563 19.1063 11.6625C19.4719 11.4688 19.6063 11.0125 19.4125 10.6469L18.2281 8.45C17.75 7.55937 16.8188 7.00313 15.8062 7.00313H15.1938C14.6844 7.00313 14.1969 7.14375 13.775 7.39687L12.725 5.45C12.2469 4.55937 11.3156 4.00313 10.3031 4.00313H9.69375C8.68125 4.00313 7.75312 4.55937 7.27187 5.45L6.22188 7.39687C5.8 7.14375 5.3125 7.00313 4.80312 7.00313H4.19375C3.18125 7.00313 2.25312 7.55937 1.77188 8.45L0.590625 10.6438C0.39375 11.0094 0.53125 11.4625 0.896875 11.6594C1.2625 11.8562 1.71563 11.7188 1.9125 11.3531L2.75 9.79688V11C2.75 11.5531 3.19688 12 3.75 12H5.25C5.80312 12 6.25 11.5531 6.25 11V9.79688Z" fill="#FE5722"/>
</svg>
