<svg width="24" height="24" viewBox="0 0 24 24" fill="none" xmlns="http://www.w3.org/2000/svg">
<path d="M13 20.27L12.942 18H11.5C9.41533 18 7.64433 17.2713 6.187 15.814C4.72967 14.3567 4.00067 12.5853 4 10.5C3.99933 8.41467 4.72833 6.64367 6.187 5.187C7.64567 3.73033 9.41667 3.00133 11.5 3C12.5427 3 13.5187 3.19533 14.428 3.586C15.3373 3.976 16.1317 4.51067 16.811 5.19C17.4903 5.86933 18.025 6.66333 18.415 7.572C18.805 8.482 19 9.458 19 10.5C19 11.5193 18.8503 12.4983 18.551 13.437C18.2517 14.3757 17.8377 15.2627 17.309 16.098C16.7803 16.9333 16.147 17.7033 15.409 18.408C14.671 19.1127 13.868 19.733 13 20.269M11.533 15.571C11.7397 15.571 11.914 15.5 12.056 15.358C12.198 15.216 12.269 15.0413 12.269 14.834C12.269 14.6267 12.198 14.4523 12.056 14.311C11.914 14.1697 11.7397 14.0987 11.533 14.098C11.3263 14.0973 11.152 14.1683 11.01 14.311C10.8673 14.4537 10.796 14.628 10.796 14.834C10.796 15.04 10.867 15.2147 11.009 15.358C11.1517 15.5 11.3263 15.571 11.533 15.571ZM11.096 12.646H11.981C12.0063 12.236 12.085 11.9117 12.217 11.673C12.349 11.4343 12.6623 11.0677 13.157 10.573C13.445 10.2863 13.673 9.99333 13.841 9.694C14.0083 9.39533 14.092 9.05233 14.092 8.665C14.092 7.94367 13.843 7.377 13.345 6.965C12.847 6.55233 12.2447 6.346 11.538 6.346C10.92 6.346 10.3967 6.515 9.968 6.853C9.538 7.19033 9.223 7.593 9.023 8.061L9.846 8.381C9.98067 8.08433 10.1773 7.81467 10.436 7.572C10.6953 7.32933 11.0627 7.208 11.538 7.208C12.1033 7.208 12.521 7.36167 12.791 7.669C13.061 7.977 13.196 8.313 13.196 8.677C13.196 9.01167 13.1093 9.29467 12.936 9.526C12.7633 9.75733 12.541 10.009 12.269 10.281C11.7883 10.7037 11.4727 11.0837 11.322 11.421C11.1713 11.757 11.096 12.1653 11.096 12.646Z" fill="black"/>
</svg>
