<svg width="18" height="20" viewBox="0 0 18 20" fill="none" xmlns="http://www.w3.org/2000/svg">
<path fill-rule="evenodd" clip-rule="evenodd" d="M14.01 6.674C12.364 6.674 11.02 5.34 11.02 3.694V1.652L16.302 6.674H14.01ZM10.838 14.292H5.43898C5.02498 14.292 4.68898 13.956 4.68898 13.542C4.68898 13.128 5.02498 12.792 5.43898 12.792H10.838C11.253 12.792 11.588 13.128 11.588 13.542C11.588 13.956 11.253 14.292 10.838 14.292ZM5.43698 8.781H8.79298C9.20698 8.781 9.54298 9.117 9.54298 9.531C9.54298 9.946 9.20698 10.281 8.79298 10.281H5.43698C5.02298 10.281 4.68698 9.946 4.68698 9.531C4.68698 9.117 5.02298 8.781 5.43698 8.781ZM17.705 6.85C17.705 6.81 17.705 6.78 17.695 6.74C17.665 6.56 17.635 6.38 17.605 6.21C17.585 6.1 17.535 6.01 17.455 5.93L11.785 0.53C11.715 0.46 11.615 0.41 11.515 0.4C11.345 0.38 11.165 0.36 10.985 0.34C10.955 0.33 10.915 0.33 10.885 0.33C10.305 0.28 9.66498 0.25 8.99498 0.25C2.43498 0.25 0.10498 2.8 0.10498 10C0.10498 17.19 2.43498 19.75 8.99498 19.75C15.565 19.75 17.895 17.19 17.895 10C17.895 8.8 17.835 7.76 17.705 6.85Z" fill="#A29FB3"/>
</svg>
