<svg width="16" height="20" viewBox="0 0 16 20" fill="none" xmlns="http://www.w3.org/2000/svg">
<path fill-rule="evenodd" clip-rule="evenodd" d="M11.427 7.968H4.57199C4.15799 7.968 3.82199 7.632 3.82199 7.218C3.82199 6.804 4.15799 6.468 4.57199 6.468H11.427C11.841 6.468 12.177 6.804 12.177 7.218C12.177 7.632 11.841 7.968 11.427 7.968ZM15.969 10.99L15.966 8.929C15.966 1.335 14.775 0 7.99999 0C1.22499 0 0.0339917 1.335 0.0339917 8.929L0.0309917 10.99C0.0219917 16.615 0.0179917 18.721 0.876992 19.58C1.15499 19.859 1.52399 20 1.97299 20C2.92799 20 3.98999 19.093 5.11499 18.132C6.11099 17.281 7.23999 16.317 7.99999 16.317C8.75999 16.317 9.88899 17.281 10.885 18.132C12.01 19.093 13.072 20 14.027 20C14.476 20 14.845 19.859 15.123 19.58C15.982 18.721 15.978 16.615 15.969 10.99Z" fill="#A29FB3"/>
</svg>
