<svg width="25" height="24" viewBox="0 0 25 24" fill="none" xmlns="http://www.w3.org/2000/svg">
<path fill-rule="evenodd" clip-rule="evenodd" d="M15.927 9.968H9.07199C8.65799 9.968 8.32199 9.632 8.32199 9.218C8.32199 8.804 8.65799 8.468 9.07199 8.468H15.927C16.341 8.468 16.677 8.804 16.677 9.218C16.677 9.632 16.341 9.968 15.927 9.968ZM20.469 12.99L20.466 10.929C20.466 3.335 19.275 2 12.5 2C5.72499 2 4.53399 3.335 4.53399 10.929L4.53099 12.99C4.52199 18.615 4.51799 20.721 5.37699 21.58C5.65499 21.859 6.02399 22 6.47299 22C7.42799 22 8.48999 21.093 9.61499 20.132C10.611 19.281 11.74 18.317 12.5 18.317C13.26 18.317 14.389 19.281 15.385 20.132C16.51 21.093 17.572 22 18.527 22C18.976 22 19.345 21.859 19.623 21.58C20.482 20.721 20.478 18.615 20.469 12.99Z" fill="#1D1446"/>
</svg>
