<svg width="21" height="22" viewBox="0 0 21 22" fill="none" xmlns="http://www.w3.org/2000/svg">
<path fill-rule="evenodd" clip-rule="evenodd" d="M13.4081 15.885H7.59306C7.17906 15.885 6.84306 15.549 6.84306 15.135C6.84306 14.721 7.17906 14.385 7.59306 14.385H13.4081C13.8221 14.385 14.1581 14.721 14.1581 15.135C14.1581 15.549 13.8221 15.885 13.4081 15.885ZM17.7491 5.158C17.3861 4.838 16.9731 4.476 16.4811 4.021C16.2581 3.841 16.0141 3.635 15.7551 3.417C14.2951 2.186 12.2951 0.5 10.4721 0.5C8.67006 0.5 6.79906 2.092 5.29606 3.371C5.01806 3.607 4.75806 3.829 4.49306 4.044C4.02706 4.476 3.61406 4.839 3.25006 5.16C0.863062 7.261 0.414062 7.812 0.414062 12.713C0.414062 21.5 2.95506 21.5 10.5001 21.5C18.0441 21.5 20.5861 21.5 20.5861 12.713C20.5861 7.811 20.1371 7.26 17.7491 5.158Z" fill="#A29FB3"/>
</svg>
