<svg width="40" height="40" viewBox="0 0 40 40" fill="none" xmlns="http://www.w3.org/2000/svg">
<path d="M20 38.75C30.3553 38.75 38.75 30.3553 38.75 20C38.75 9.64466 30.3553 1.25 20 1.25C9.64466 1.25 1.25 9.64466 1.25 20C1.25 30.3553 9.64466 38.75 20 38.75Z" fill="#4FD1D9"/>
<path d="M16.875 17.375H23.125V32.375H16.875V17.375Z" fill="white"/>
<path d="M20 13.875C21.7259 13.875 23.125 12.4759 23.125 10.75C23.125 9.02411 21.7259 7.625 20 7.625C18.2741 7.625 16.875 9.02411 16.875 10.75C16.875 12.4759 18.2741 13.875 20 13.875Z" fill="white"/>
</svg>
