<svg width="16" height="16" viewBox="0 0 16 16" fill="none" xmlns="http://www.w3.org/2000/svg">
<g clip-path="url(#clip0_173_1873)">
<path d="M14.6666 8.00016C14.6666 4.31816 11.682 1.3335 7.99998 1.3335C4.31798 1.3335 1.33331 4.31816 1.33331 8.00016C1.33331 11.6822 4.31798 14.6668 7.99998 14.6668" stroke="#FE5722" stroke-linecap="round" stroke-linejoin="round"/>
<path d="M8.66663 1.3667C8.66663 1.3667 10.6666 4.00003 10.6666 8.00003M7.3333 14.6334C7.3333 14.6334 5.3333 12 5.3333 8.00003C5.3333 4.00003 7.3333 1.3667 7.3333 1.3667M1.7533 10.3334H7.99996M1.7533 5.6667H14.2466" stroke="#FE5722" stroke-linecap="round" stroke-linejoin="round"/>
<path d="M14.586 11.9449C14.9153 12.1476 14.8947 12.6403 14.556 12.6789L12.8447 12.8729L12.0773 14.4143C11.9253 14.7203 11.4553 14.5703 11.3773 14.1916L10.5407 10.1143C10.4747 9.79426 10.7627 9.59292 11.0407 9.76426L14.586 11.9449Z" stroke="#FE5722"/>
</g>
<defs>
<clipPath id="clip0_173_1873">
<rect width="16" height="16" fill="white"/>
</clipPath>
</defs>
</svg>
