<svg width="25" height="24" viewBox="0 0 25 24" fill="none" xmlns="http://www.w3.org/2000/svg">
<path fill-rule="evenodd" clip-rule="evenodd" d="M16.0596 8.74441C15.0136 8.50141 13.7526 8.39041 12.2496 8.39041C10.7466 8.39041 9.4856 8.50141 8.4396 8.74441V7.31241C8.4726 5.23841 10.1236 3.59341 12.1996 3.56641C13.2306 3.53841 14.1816 3.93841 14.9106 4.64941C15.6386 5.36041 16.0476 6.31141 16.0596 7.32041V8.74441ZM12.9996 16.4434C12.9996 16.8574 12.6636 17.1934 12.2496 17.1934C11.8356 17.1934 11.4996 16.8574 11.4996 16.4434V14.2224C11.4996 13.8084 11.8356 13.4724 12.2496 13.4724C12.6636 13.4724 12.9996 13.8084 12.9996 14.2224V16.4434ZM17.5596 9.25741V7.31141C17.5416 5.89241 16.9736 4.56541 15.9566 3.57541C14.9416 2.58541 13.5876 2.09441 12.1796 2.06641C9.2886 2.10341 6.9866 4.39741 6.9396 7.30141V9.25841C4.9056 10.2284 4.0896 12.0794 4.0896 15.1614C4.0896 20.1614 6.2256 21.9334 12.2496 21.9334C18.2746 21.9334 20.4106 20.1614 20.4106 15.1614C20.4106 12.0794 19.5936 10.2274 17.5596 9.25741Z" fill="#140E31"/>
</svg>
