<svg width="16" height="16" viewBox="0 0 16 16" fill="none" xmlns="http://www.w3.org/2000/svg">
<path d="M13.0711 7.99999L7.41424 2.34313C7.2139 2.14279 7.11396 1.90708 7.11443 1.63603C7.1149 1.36497 7.21484 1.12927 7.41424 0.92892C7.61459 0.728573 7.85029 0.628635 8.12135 0.629107C8.39241 0.629578 8.62811 0.729516 8.82846 0.92892L15.1924 7.29288C15.3928 7.49323 15.4929 7.72917 15.4929 8.00069C15.4929 8.27222 15.3928 8.50769 15.1924 8.70709L8.82846 15.0711C8.62811 15.2714 8.39217 15.3716 8.12064 15.3716C7.84911 15.3716 7.61365 15.2714 7.41424 15.0711C7.2139 14.8707 7.11396 14.635 7.11443 14.3639C7.1149 14.0929 7.21484 13.8572 7.41424 13.6568L13.0711 7.99999ZM6.00003 7.99999L0.343175 2.34313C0.142828 2.14279 0.0428904 1.90708 0.0433617 1.63603C0.043833 1.36497 0.143771 1.12927 0.343175 0.92892C0.543522 0.728573 0.779224 0.628635 1.05028 0.629107C1.32134 0.629578 1.55704 0.729516 1.75739 0.92892L8.12135 7.29288C8.3217 7.49323 8.42187 7.72917 8.42187 8.00069C8.42187 8.27222 8.3217 8.50769 8.12135 8.70709L1.75739 15.0711C1.55704 15.2714 1.3211 15.3716 1.04957 15.3716C0.778045 15.3716 0.542578 15.2714 0.343175 15.0711C0.142828 14.8707 0.0428903 14.635 0.0433617 14.3639C0.0438331 14.0929 0.143771 13.8572 0.343175 13.6568L6.00003 7.99999Z" fill="#FE5722"/>
</svg>
