<svg width="19" height="24" viewBox="0 0 19 24" fill="none" xmlns="http://www.w3.org/2000/svg">
<path fill-rule="evenodd" clip-rule="evenodd" d="M4.01428 0.685721C3.74149 0.321996 3.33537 0.0815346 2.88529 0.0172364C2.4352 -0.0470617 1.97801 0.0700701 1.61428 0.342864C1.25055 0.615658 1.01009 1.02177 0.945795 1.47186C0.881497 1.92194 0.998628 2.37914 1.27142 2.74286L7.98628 11.6949V11.7309H4.21142C3.9863 11.7309 3.76338 11.7752 3.55539 11.8614C3.34741 11.9475 3.15843 12.0738 2.99924 12.233C2.84005 12.3922 2.71378 12.5811 2.62763 12.7891C2.54148 12.9971 2.49714 13.22 2.49714 13.4452C2.49714 13.6703 2.54148 13.8932 2.62763 14.1012C2.71378 14.3092 2.84005 14.4981 2.99924 14.6573C3.15843 14.8165 3.34741 14.9428 3.55539 15.0289C3.76338 15.1151 3.9863 15.1594 4.21142 15.1594H7.98628V17.2937H4.21142C3.75677 17.2937 3.32073 17.4743 2.99924 17.7958C2.67775 18.1173 2.49714 18.5534 2.49714 19.008C2.49714 19.4627 2.67775 19.8987 2.99924 20.2202C3.32073 20.5417 3.75677 20.7223 4.21142 20.7223H7.98628V22.1023C7.98628 22.5569 8.16689 22.993 8.48838 23.3145C8.80987 23.636 9.24591 23.8166 9.70057 23.8166C10.1552 23.8166 10.5913 23.636 10.9127 23.3145C11.2342 22.993 11.4149 22.5569 11.4149 22.1023V20.7223H15.1897C15.6444 20.7223 16.0804 20.5417 16.4019 20.2202C16.7234 19.8987 16.904 19.4627 16.904 19.008C16.904 18.5534 16.7234 18.1173 16.4019 17.7958C16.0804 17.4743 15.6444 17.2937 15.1897 17.2937H11.4149V15.1594H15.1897C15.6444 15.1594 16.0804 14.9788 16.4019 14.6573C16.7234 14.3358 16.904 13.8998 16.904 13.4452C16.904 12.9905 16.7234 12.5545 16.4019 12.233C16.0804 11.9115 15.6444 11.7309 15.1897 11.7309H11.4149V11.6966L18.128 2.74286C18.2631 2.56277 18.3613 2.35783 18.4172 2.13975C18.4731 1.92167 18.4855 1.69472 18.4536 1.47186C18.4218 1.249 18.3464 1.03459 18.2317 0.840875C18.117 0.647162 17.9652 0.477938 17.7851 0.342864C17.605 0.20779 17.4001 0.109512 17.182 0.0536407C16.9639 -0.00223064 16.737 -0.0146008 16.5141 0.0172364C16.2913 0.0490737 16.0769 0.124495 15.8831 0.239194C15.6894 0.353892 15.5202 0.505623 15.3851 0.685721L9.70057 8.26629L4.01428 0.685721Z" fill="#1D1446"/>
</svg>
