<svg width="24" height="24" viewBox="0 0 24 24" fill="none" xmlns="http://www.w3.org/2000/svg">
<path fill-rule="evenodd" clip-rule="evenodd" d="M17.76 13.852C17.76 14.266 17.424 14.602 17.01 14.602C16.596 14.602 16.26 14.266 16.26 13.852V12.75H14.932V13.852C14.932 14.266 14.596 14.602 14.182 14.602C13.768 14.602 13.432 14.266 13.432 13.852V12.75H11.316C10.992 13.818 10.009 14.602 8.837 14.602C7.403 14.602 6.236 13.435 6.236 12C6.236 10.566 7.403 9.399 8.837 9.399C10.011 9.4 10.992 10.184 11.316 11.25H17.01C17.424 11.25 17.76 11.586 17.76 12V13.852ZM12 2.25C4.802 2.25 2.25 4.802 2.25 12C2.25 19.199 4.802 21.75 12 21.75C19.198 21.75 21.75 19.199 21.75 12C21.75 4.802 19.198 2.25 12 2.25Z" fill="#A29FB3"/>
<path fill-rule="evenodd" clip-rule="evenodd" d="M8.83911 10.8988C8.23011 10.8988 7.73511 11.3928 7.73511 12.0008C7.73511 12.6078 8.23011 13.1018 8.83711 13.1018C9.44511 13.1018 9.94011 12.6078 9.94011 12.0008C9.94011 11.3938 9.44611 10.8998 8.83911 10.8988Z" fill="#A29FB3"/>
</svg>
