<svg width="16" height="16" viewBox="0 0 16 16" fill="none" xmlns="http://www.w3.org/2000/svg">
<path fill-rule="evenodd" clip-rule="evenodd" d="M8.00267 10.8333C7.72667 10.8333 7.49933 10.6093 7.49933 10.3333C7.49933 10.0573 7.72067 9.83333 7.99667 9.83333H8.00267C8.27867 9.83333 8.50267 10.0573 8.50267 10.3333C8.50267 10.6093 8.27867 10.8333 8.00267 10.8333ZM7.5 5.40333C7.5 5.12733 7.724 4.90333 8 4.90333C8.276 4.90333 8.5 5.12733 8.5 5.40333V8C8.5 8.276 8.276 8.5 8 8.5C7.724 8.5 7.5 8.276 7.5 8V5.40333ZM8 1.5C3.20133 1.5 1.5 3.20133 1.5 8C1.5 12.7987 3.20133 14.5 8 14.5C12.7987 14.5 14.5 12.7987 14.5 8C14.5 3.20133 12.7987 1.5 8 1.5Z" fill="#F79022"/>
</svg>
