<svg width="20" height="20" viewBox="0 0 20 20" fill="none" xmlns="http://www.w3.org/2000/svg">
<g clip-path="url(#clip0_93_1311)">
<path d="M16.9468 3.92687C16.2865 3.43625 15.3781 3.11469 14.6965 2.89187C13.3781 2.46125 11.4025 2.23531 9.99966 2.18969V2.1875C9.99184 2.1875 9.98309 2.18875 9.97559 2.18875C9.96778 2.18875 9.95934 2.1875 9.95122 2.1875V2.19C8.54903 2.23562 6.57309 2.46156 5.25434 2.89219C4.57309 3.115 3.66372 3.43656 3.00372 3.92719C1.53716 4.00406 0.13278 5.87406 0.00903042 6.72312C-0.122532 7.63094 1.04278 8.52906 2.61559 8.73031C4.18434 8.93 5.56497 8.35563 5.69778 7.44781C5.75059 7.08469 5.62841 6.48344 5.36591 5.87906C6.81309 5.27281 8.56716 4.96813 9.97497 4.90969C11.3822 4.96813 13.1362 5.27281 14.584 5.87906C14.3212 6.48281 14.1997 7.08406 14.2518 7.44781C14.3847 8.35563 15.7643 8.93 17.3347 8.73031C18.9065 8.52875 20.0731 7.63094 19.9409 6.72312C19.8175 5.87406 18.4134 4.00375 16.9459 3.92687" fill="#FE5722"/>
<path d="M18.3619 17.3779V12.4851L13.5782 6.74449V4.83105H11.9844V5.98137H7.92318V4.83105H6.32881V6.74449L1.54443 12.4851V17.3779H18.3619Z" fill="#FE5722"/>
<path d="M8.36254 9.76552C8.36254 10.0971 8.13035 10.3646 7.8466 10.3646H6.96223C6.67723 10.3646 6.44629 10.0974 6.44629 9.76552V9.02583C6.44629 8.69614 6.67723 8.42896 6.96223 8.42896H7.8466C8.13035 8.42896 8.36254 8.69614 8.36254 9.02583V9.76552ZM10.9094 9.76552C10.9094 10.0971 10.6788 10.3646 10.3944 10.3646H9.51035C9.22535 10.3646 8.99441 10.0974 8.99441 9.76552V9.02583C8.99441 8.69614 9.22535 8.42896 9.51035 8.42896H10.3944C10.6788 8.42896 10.9094 8.69614 10.9094 9.02583V9.76552ZM13.4004 9.76552C13.4004 10.0971 13.1682 10.3646 12.8838 10.3646H12C11.715 10.3646 11.4841 10.0974 11.4841 9.76552V9.02583C11.4841 8.69614 11.715 8.42896 12 8.42896H12.8838C13.1682 8.42896 13.4004 8.69614 13.4004 9.02583V9.76552ZM8.39191 12.2936C8.39191 12.6243 8.15973 12.8915 7.87598 12.8915H6.99129C6.70629 12.8915 6.47535 12.6243 6.47535 12.2936V11.5533C6.47535 11.2243 6.70629 10.9568 6.99129 10.9568H7.87598C8.15973 10.9568 8.39191 11.2243 8.39191 11.5533V12.2936ZM10.9407 12.2936C10.9407 12.6243 10.7104 12.8915 10.4254 12.8915H9.5416C9.2566 12.8915 9.02566 12.6243 9.02566 12.2936V11.5533C9.02566 11.2243 9.2566 10.9568 9.5416 10.9568H10.4254C10.7104 10.9568 10.9407 11.2243 10.9407 11.5533V12.2936ZM13.4297 12.2936C13.4297 12.6243 13.1979 12.8915 12.9135 12.8915H12.0294C11.7447 12.8915 11.5138 12.6243 11.5138 12.2936V11.5533C11.5138 11.2243 11.7447 10.9568 12.0294 10.9568H12.9135C13.1979 10.9568 13.4297 11.2243 13.4297 11.5533V12.2936ZM8.42129 14.8974C8.42129 15.2274 8.1891 15.4952 7.90535 15.4952H7.02066C6.73566 15.4952 6.50473 15.2274 6.50473 14.8974V14.1574C6.50473 13.828 6.73566 13.5605 7.02066 13.5605H7.90535C8.1891 13.5605 8.42129 13.828 8.42129 14.1574V14.8974ZM10.9688 14.8974C10.9688 15.2274 10.7372 15.4952 10.4529 15.4952H9.56879C9.28379 15.4952 9.05285 15.2274 9.05285 14.8974V14.1574C9.05285 13.828 9.28379 13.5605 9.56879 13.5605H10.4529C10.7372 13.5605 10.9688 13.828 10.9688 14.1574V14.8974ZM13.4594 14.8974C13.4594 15.2274 13.2279 15.4952 12.9435 15.4952H12.0597C11.7741 15.4952 11.5438 15.2274 11.5438 14.8974V14.1574C11.5438 13.828 11.7741 13.5605 12.0597 13.5605H12.9435C13.2279 13.5605 13.4594 13.828 13.4594 14.1574V14.8974Z" fill="#FFCBBA"/>
</g>
<defs>
<clipPath id="clip0_93_1311">
<rect width="20" height="20" fill="white"/>
</clipPath>
</defs>
</svg>
