<svg width="20" height="20" viewBox="0 0 20 20" fill="none" xmlns="http://www.w3.org/2000/svg">
<path d="M13.7967 10.7548L13.4175 11.1323C13.4175 11.1323 12.515 12.029 10.0525 9.58065C7.59002 7.13232 8.49252 6.23565 8.49252 6.23565L8.73085 5.99732C9.32002 5.41232 9.37585 4.47232 8.86169 3.78565L7.81169 2.38315C7.17502 1.53315 5.94586 1.42065 5.21669 2.14565L3.90836 3.44565C3.54752 3.80565 3.30585 4.27065 3.33502 4.78732C3.41002 6.10982 4.00835 8.95399 7.34502 12.2723C10.8842 15.7907 14.205 15.9307 15.5625 15.804C15.9925 15.764 16.3659 15.5457 16.6667 15.2457L17.85 14.069C18.65 13.2748 18.425 11.9123 17.4017 11.3565L15.81 10.4907C15.1384 10.1265 14.3217 10.2332 13.7967 10.7548Z" fill="#FE5722"/>
</svg>
