<svg width="24" height="24" viewBox="0 0 24 24" fill="none" xmlns="http://www.w3.org/2000/svg">
<path d="M15.833 2.00002H9.676C8.15497 2.00123 6.69348 2.59131 5.59801 3.64652C4.50253 4.70173 3.85815 6.1401 3.8 7.66002H3C2.80109 7.66002 2.61032 7.73904 2.46967 7.87969C2.32902 8.02034 2.25 8.21111 2.25 8.41002C2.25 8.60893 2.32902 8.7997 2.46967 8.94035C2.61032 9.081 2.80109 9.16002 3 9.16002H3.79V14.85H3.03C2.83109 14.85 2.64032 14.929 2.49967 15.0697C2.35902 15.2103 2.28 15.4011 2.28 15.6C2.28 15.7989 2.35902 15.9897 2.49967 16.1304C2.64032 16.271 2.83109 16.35 3.03 16.35H3.83C3.88969 17.8685 4.53487 19.3049 5.63029 20.3582C6.72571 21.4115 8.18634 21.9999 9.706 22H15.863C16.6364 22.0002 17.4022 21.8479 18.1167 21.5519C18.8312 21.2559 19.4804 20.822 20.0271 20.275C20.5738 19.728 21.0074 19.0786 21.303 18.364C21.5986 17.6493 21.7505 16.8834 21.75 16.11V7.89002C21.7484 7.1147 21.5941 6.3473 21.2959 5.63164C20.9976 4.91598 20.5613 4.2661 20.0118 3.71912C19.4623 3.17215 18.8104 2.73879 18.0934 2.44382C17.3764 2.14885 16.6083 1.99805 15.833 2.00002ZM13.154 5.93002C13.6127 5.92974 14.0657 6.03135 14.4803 6.22751C14.8949 6.42366 15.2608 6.70946 15.5515 7.06426C15.8422 7.41906 16.0504 7.834 16.1612 8.27911C16.272 8.72421 16.2825 9.18836 16.192 9.63802C16.1019 10.0874 15.9133 10.5113 15.6397 10.8791C15.3661 11.2468 15.0143 11.5493 14.6098 11.7648C14.2052 11.9803 13.7579 12.1034 13.3001 12.1252C12.8422 12.147 12.3852 12.067 11.962 11.891C11.4915 11.6951 11.0765 11.3861 10.754 10.9914C10.4314 10.5967 10.2112 10.1286 10.1127 9.62849C10.0143 9.12836 10.0408 8.61169 10.1898 8.12425C10.3388 7.6368 10.6058 7.19364 10.967 6.83402C11.5476 6.25506 12.3341 5.92997 13.154 5.93002ZM16.653 17.5C16.4541 17.5 16.2633 17.421 16.1227 17.2803C15.982 17.1397 15.903 16.9489 15.903 16.75C15.903 15.54 14.393 14.5 13.154 14.5C11.915 14.5 10.416 15.5 10.416 16.75C10.416 16.9489 10.337 17.1397 10.1963 17.2803C10.0557 17.421 9.86491 17.5 9.666 17.5C9.46709 17.5 9.27632 17.421 9.13567 17.2803C8.99502 17.1397 8.916 16.9489 8.916 16.75C8.916 14.6 11.156 13 13.154 13C15.154 13 17.402 14.6 17.402 16.75C17.3994 16.9481 17.3196 17.1374 17.1795 17.2775C17.0394 17.4176 16.8511 17.4974 16.653 17.5Z" fill="#F79022"/>
<path d="M14.754 9.01972C14.7567 9.44407 14.5906 9.85209 14.2924 10.154C13.9943 10.456 13.5883 10.6271 13.164 10.6297C12.7397 10.6324 12.3316 10.4663 12.0297 10.1682C11.7278 9.86998 11.5567 9.46407 11.554 9.03972C11.5513 8.61537 11.7174 8.20735 12.0156 7.90542C12.3137 7.60349 12.7197 7.43237 13.144 7.42972C13.5683 7.42707 13.9764 7.59309 14.2783 7.89128C14.5802 8.18946 14.7513 8.59537 14.754 9.01972Z" fill="#F79022"/>
</svg>
