<svg width="20" height="20" viewBox="0 0 20 20" fill="none" xmlns="http://www.w3.org/2000/svg">
<path fill-rule="evenodd" clip-rule="evenodd" d="M14.77 8.11L14.21 8.74C14.19 8.71 10.75 5.66 10.71 5.64L11.27 5.01C12.13 4.05 13.61 3.96 14.57 4.81C15.09 5.27 15.36 5.92 15.36 6.56C15.36 7.11 15.17 7.66 14.77 8.11ZM9.35 14.24C8.61 15.07 7.61 15.27 6.82 15.27C6.1 15.27 5.54 15.1 5.53 15.1C5.5 15.09 5.47 15.06 5.46 15.03C5.45 15.01 4.42 12.76 5.85 11.14L9.73 6.75C9.76 6.78 13.2 9.83 13.23 9.85L9.35 14.24ZM10 0.25C2.8 0.25 0.25 2.8 0.25 10C0.25 17.2 2.8 19.75 10 19.75C17.2 19.75 19.75 17.2 19.75 10C19.75 2.8 17.2 0.25 10 0.25Z" fill="#170D45"/>
</svg>
