<svg width="16" height="16" viewBox="0 0 16 16" fill="none" xmlns="http://www.w3.org/2000/svg">
<path d="M2.66665 13.3333C2.29998 13.3333 1.9862 13.2029 1.72531 12.942C1.46442 12.6811 1.33376 12.3671 1.33331 12V4C1.33331 3.63333 1.46398 3.31955 1.72531 3.05866C1.98665 2.79778 2.30042 2.66711 2.66665 2.66666H13.3333C13.7 2.66666 14.014 2.79733 14.2753 3.05866C14.5366 3.32 14.6671 3.63378 14.6666 4V12C14.6666 12.3667 14.5362 12.6807 14.2753 12.942C14.0144 13.2033 13.7004 13.3338 13.3333 13.3333H2.66665ZM4.33331 10H5.09998V6H4.49998L3.33331 6.83333L3.73331 7.43333L4.33331 7V10ZM6.39998 10H8.99998V9.33333H7.43331L7.39998 9.3C7.63331 9.07778 7.82509 8.88889 7.97531 8.73333C8.12554 8.57778 8.24487 8.45555 8.33331 8.36666C8.53331 8.16666 8.68331 7.96666 8.78331 7.76666C8.88331 7.56666 8.93331 7.35555 8.93331 7.13333C8.93331 6.81111 8.81109 6.54155 8.56665 6.32466C8.3222 6.10778 8.01109 5.99955 7.63331 6C7.34442 6 7.08331 6.08333 6.84998 6.25C6.61665 6.41666 6.45554 6.63333 6.36665 6.9L7.03331 7.16666C7.08887 7.02222 7.16954 6.90822 7.27531 6.82466C7.38109 6.74111 7.50042 6.69955 7.63331 6.7C7.79998 6.7 7.9362 6.74444 8.04198 6.83333C8.14776 6.92222 8.20042 7.03333 8.19998 7.16666C8.19998 7.28889 8.17776 7.40289 8.13331 7.50866C8.08887 7.61444 7.98887 7.74489 7.83331 7.9L7.29998 8.43333L6.39998 9.33333V10ZM11.3333 10C11.7333 10 12.0555 9.88889 12.3 9.66666C12.5444 9.44444 12.6666 9.15555 12.6666 8.8C12.6666 8.6 12.6111 8.42222 12.5 8.26666C12.3889 8.11111 12.2333 7.98889 12.0333 7.9V7.86666C12.1889 7.77778 12.3111 7.66377 12.4 7.52466C12.4889 7.38555 12.5333 7.22178 12.5333 7.03333C12.5333 6.73333 12.4166 6.486 12.1833 6.29133C11.95 6.09666 11.6555 5.99955 11.3 6C11.0222 6 10.764 6.08066 10.5253 6.242C10.2866 6.40333 10.1338 6.60044 10.0666 6.83333L10.7333 7.1C10.7778 6.96666 10.85 6.86111 10.95 6.78333C11.05 6.70555 11.1666 6.66666 11.3 6.66666C11.4444 6.66666 11.564 6.70844 11.6586 6.792C11.7533 6.87555 11.8004 6.97822 11.8 7.1C11.8 7.25555 11.7444 7.37778 11.6333 7.46666C11.5222 7.55555 11.3778 7.6 11.2 7.6H10.9V8.26666H11.2333C11.4555 8.26666 11.6278 8.31111 11.75 8.4C11.8722 8.48889 11.9333 8.61111 11.9333 8.76666C11.9333 8.91111 11.8722 9.03622 11.75 9.142C11.6278 9.24778 11.4889 9.30044 11.3333 9.3C11.1444 9.3 11 9.25844 10.9 9.17533C10.8 9.09222 10.7111 8.94489 10.6333 8.73333L9.96665 9C10.0444 9.32222 10.2029 9.56955 10.442 9.742C10.6811 9.91444 10.9782 10.0004 11.3333 10Z" fill="#591E0C"/>
</svg>
