<svg width="19" height="18" viewBox="0 0 19 18" fill="none" xmlns="http://www.w3.org/2000/svg">
<path fill-rule="evenodd" clip-rule="evenodd" d="M5.5 0C5.23481 5.66374e-05 4.98049 0.105451 4.793 0.293L0.793 4.293C0.61631 4.46908 0.511807 4.70483 0.5 4.954M0.5 5.008V15C0.5 15.7956 0.816071 16.5587 1.37868 17.1213C1.94129 17.6839 2.70435 18 3.5 18H15.5C16.2956 18 17.0587 17.6839 17.6213 17.1213C18.1839 16.5587 18.5 15.7956 18.5 15V5.008L18.499 4.954C18.4875 4.70497 18.3833 4.46923 18.207 4.293L14.207 0.293C14.0195 0.105451 13.7652 5.66374e-05 13.5 0H5.5M15.086 4L13.086 2H5.914L3.914 4H15.086ZM4.5 9C4.5 8.73478 4.60536 8.48043 4.79289 8.29289C4.98043 8.10536 5.23478 8 5.5 8H9.5C9.76522 8 10.0196 8.10536 10.2071 8.29289C10.3946 8.48043 10.5 8.73478 10.5 9C10.5 9.26522 10.3946 9.51957 10.2071 9.70711C10.0196 9.89464 9.76522 10 9.5 10H5.5C5.23478 10 4.98043 9.89464 4.79289 9.70711C4.60536 9.51957 4.5 9.26522 4.5 9Z" fill="#A29FB3"/>
</svg>
