<svg width="17" height="16" viewBox="0 0 17 16" fill="none" xmlns="http://www.w3.org/2000/svg">
<path d="M8.5 9.65L9.78333 10.4167C9.90556 10.4944 10.0251 10.4918 10.142 10.4087C10.2589 10.3256 10.3004 10.2116 10.2667 10.0667L9.93333 8.61667L11.0667 7.63333C11.1778 7.53333 11.2111 7.414 11.1667 7.27533C11.1222 7.13667 11.0222 7.06156 10.8667 7.05L9.38333 6.93333L8.8 5.55C8.74444 5.41667 8.64444 5.35 8.5 5.35C8.35556 5.35 8.25556 5.41667 8.2 5.55L7.61667 6.93333L6.13333 7.05C5.97778 7.06111 5.87778 7.13622 5.83333 7.27533C5.78889 7.41444 5.82222 7.53378 5.93333 7.63333L7.06667 8.61667L6.73333 10.0667C6.7 10.2111 6.74178 10.3251 6.85867 10.4087C6.97556 10.4922 7.09489 10.4949 7.21667 10.4167L8.5 9.65ZM6.26667 13.3333H4.5C4.13333 13.3333 3.81956 13.2029 3.55867 12.942C3.29778 12.6811 3.16711 12.3671 3.16667 12V10.2333L1.88333 8.93333C1.76111 8.8 1.66667 8.65289 1.6 8.492C1.53333 8.33111 1.5 8.16711 1.5 8C1.5 7.83333 1.53333 7.66956 1.6 7.50867C1.66667 7.34778 1.76111 7.20044 1.88333 7.06667L3.16667 5.76667V4C3.16667 3.63333 3.29733 3.31956 3.55867 3.05867C3.82 2.79778 4.13378 2.66711 4.5 2.66667H6.26667L7.56667 1.38333C7.7 1.26111 7.84733 1.16667 8.00867 1.1C8.17 1.03333 8.33378 1 8.5 1C8.66667 1 8.83067 1.03333 8.992 1.1C9.15333 1.16667 9.30044 1.26111 9.43333 1.38333L10.7333 2.66667H12.5C12.8667 2.66667 13.1807 2.79733 13.442 3.05867C13.7033 3.32 13.8338 3.63378 13.8333 4V5.76667L15.1167 7.06667C15.2389 7.2 15.3333 7.34733 15.4 7.50867C15.4667 7.67 15.5 7.83378 15.5 8C15.5 8.16667 15.4667 8.33067 15.4 8.492C15.3333 8.65333 15.2389 8.80044 15.1167 8.93333L13.8333 10.2333V12C13.8333 12.3667 13.7029 12.6807 13.442 12.942C13.1811 13.2033 12.8671 13.3338 12.5 13.3333H10.7333L9.43333 14.6167C9.3 14.7389 9.15289 14.8333 8.992 14.9C8.83111 14.9667 8.66711 15 8.5 15C8.33333 15 8.16956 14.9667 8.00867 14.9C7.84778 14.8333 7.70044 14.7389 7.56667 14.6167L6.26667 13.3333Z" fill="#FE5722"/>
</svg>
