<svg width="16" height="16" viewBox="0 0 16 16" fill="none" xmlns="http://www.w3.org/2000/svg">
<path d="M8 1.5C6.71442 1.5 5.45772 1.88122 4.3888 2.59545C3.31988 3.30968 2.48676 4.32484 1.99479 5.51256C1.50282 6.70028 1.37409 8.00721 1.6249 9.26809C1.8757 10.529 2.49477 11.6872 3.40381 12.5962C4.31285 13.5052 5.47104 14.1243 6.73192 14.3751C7.99279 14.6259 9.29973 14.4972 10.4874 14.0052C11.6752 13.5132 12.6903 12.6801 13.4046 11.6112C14.1188 10.5423 14.5 9.28558 14.5 8C14.4982 6.27665 13.8128 4.62441 12.5942 3.40582C11.3756 2.18722 9.72335 1.50182 8 1.5ZM6.35188 10.5H9.64813C9.3125 11.6462 8.75 12.6794 8 13.4931C7.25 12.6794 6.6875 11.6462 6.35188 10.5ZM6.125 9.5C5.95917 8.50688 5.95917 7.49312 6.125 6.5H9.875C10.0408 7.49312 10.0408 8.50688 9.875 9.5H6.125ZM2.5 8C2.49957 7.49277 2.56961 6.98795 2.70813 6.5H5.11188C4.96271 7.49444 4.96271 8.50556 5.11188 9.5H2.70813C2.56961 9.01205 2.49957 8.50723 2.5 8ZM9.64813 5.5H6.35188C6.6875 4.35375 7.25 3.32063 8 2.50688C8.75 3.32063 9.3125 4.35375 9.64813 5.5ZM10.8881 6.5H13.2919C13.5694 7.48075 13.5694 8.51925 13.2919 9.5H10.8881C11.0373 8.50556 11.0373 7.49444 10.8881 6.5ZM12.8981 5.5H10.6838C10.4286 4.49594 10.0001 3.54415 9.4175 2.6875C10.1618 2.88751 10.856 3.24108 11.4554 3.72546C12.0549 4.20984 12.5463 4.81431 12.8981 5.5ZM6.5825 2.6875C5.99994 3.54415 5.57142 4.49594 5.31625 5.5H3.10188C3.45371 4.81431 3.94515 4.20984 4.54459 3.72546C5.14404 3.24108 5.83822 2.88751 6.5825 2.6875ZM3.10188 10.5H5.31625C5.57142 11.5041 5.99994 12.4558 6.5825 13.3125C5.83822 13.1125 5.14404 12.7589 4.54459 12.2745C3.94515 11.7902 3.45371 11.1857 3.10188 10.5ZM9.4175 13.3125C10.0001 12.4558 10.4286 11.5041 10.6838 10.5H12.8981C12.5463 11.1857 12.0549 11.7902 11.4554 12.2745C10.856 12.7589 10.1618 13.1125 9.4175 13.3125Z" fill="#591E0C"/>
</svg>
