<svg width="20" height="20" viewBox="0 0 20 20" fill="none" xmlns="http://www.w3.org/2000/svg">
<path d="M10 2.03125C8.42393 2.03125 6.88326 2.49861 5.5728 3.37423C4.26235 4.24984 3.24097 5.49439 2.63784 6.95049C2.0347 8.40659 1.87689 10.0088 2.18437 11.5546C2.49185 13.1004 3.2508 14.5203 4.36525 15.6348C5.4797 16.7492 6.89959 17.5082 8.44538 17.8156C9.99116 18.1231 11.5934 17.9653 13.0495 17.3622C14.5056 16.759 15.7502 15.7377 16.6258 14.4272C17.5014 13.1167 17.9688 11.5761 17.9688 10C17.9663 7.88732 17.1259 5.86188 15.632 4.36798C14.1381 2.87409 12.1127 2.03373 10 2.03125ZM16.3727 7.03125H13.2336C12.892 5.61437 12.269 4.28064 11.4016 3.10938C12.4784 3.33066 13.4886 3.8005 14.3517 4.48141C15.2148 5.16233 15.9068 6.03548 16.3727 7.03125ZM17.0313 10C17.0318 10.6881 16.931 11.3725 16.732 12.0312H13.4266C13.6495 10.6863 13.6495 9.31374 13.4266 7.96875H16.732C16.931 8.62747 17.0318 9.3119 17.0313 10ZM10 17.0312C9.98052 17.0314 9.96124 17.0273 9.94346 17.0194C9.92567 17.0114 9.90979 16.9997 9.89688 16.9852C8.89063 15.9016 8.15157 14.5102 7.73438 12.9688H12.2656C11.8484 14.5102 11.1094 15.9016 10.1031 16.9852C10.0902 16.9997 10.0743 17.0114 10.0565 17.0194C10.0388 17.0273 10.0195 17.0314 10 17.0312ZM7.52422 12.0312C7.2836 10.6878 7.2836 9.31223 7.52422 7.96875H12.4758C12.7164 9.31223 12.7164 10.6878 12.4758 12.0312H7.52422ZM2.96875 10C2.96823 9.3119 3.06905 8.62747 3.26797 7.96875H6.57344C6.3505 9.31374 6.3505 10.6863 6.57344 12.0312H3.26797C3.06905 11.3725 2.96823 10.6881 2.96875 10ZM10 2.96875C10.0195 2.96864 10.0388 2.9727 10.0565 2.98065C10.0743 2.9886 10.0902 3.00026 10.1031 3.01484C11.1094 4.09844 11.8484 5.48984 12.2656 7.03125H7.73438C8.15157 5.48984 8.89063 4.09844 9.89688 3.01484C9.90979 3.00026 9.92567 2.9886 9.94346 2.98065C9.96124 2.9727 9.98052 2.96864 10 2.96875ZM8.59844 3.10938C7.73104 4.28064 7.10801 5.61437 6.76641 7.03125H3.62735C4.09317 6.03548 4.78521 5.16233 5.64829 4.48141C6.51137 3.8005 7.5216 3.33066 8.59844 3.10938ZM3.62735 12.9688H6.76641C7.10801 14.3856 7.73104 15.7194 8.59844 16.8906C7.5216 16.6693 6.51137 16.1995 5.64829 15.5186C4.78521 14.8377 4.09317 13.9645 3.62735 12.9688ZM11.4016 16.8906C12.269 15.7194 12.892 14.3856 13.2336 12.9688H16.3727C15.9068 13.9645 15.2148 14.8377 14.3517 15.5186C13.4886 16.1995 12.4784 16.6693 11.4016 16.8906Z" fill="#FE5722"/>
</svg>
