<svg width="16" height="16" viewBox="0 0 16 16" fill="none" xmlns="http://www.w3.org/2000/svg">
<g clip-path="url(#clip0_173_1927)">
<path d="M15.3181 5.66869L13.9391 4.28963C13.8278 4.17986 13.6794 4.11577 13.5233 4.10998C13.3671 4.1042 13.2144 4.15714 13.0953 4.25838C12.9115 4.41486 12.6756 4.49656 12.4343 4.4873C12.1931 4.47804 11.9641 4.37849 11.7928 4.20838C11.6228 4.03709 11.5233 3.80819 11.514 3.56703C11.5048 3.32586 11.5864 3.09001 11.7428 2.90619C11.844 2.78711 11.897 2.63442 11.8912 2.47824C11.8854 2.32205 11.8213 2.1737 11.7116 2.06244L10.3312 0.681813C10.2146 0.565388 10.0565 0.5 9.89172 0.5C9.72691 0.5 9.56884 0.565388 9.45219 0.681813L7.25375 2.87994C7.11802 3.01615 7.01566 3.18194 6.95469 3.36431C6.94281 3.39938 6.92302 3.43123 6.89684 3.45741C6.87067 3.48359 6.83881 3.50338 6.80375 3.51525C6.6213 3.57622 6.45549 3.6787 6.31937 3.81463L0.681874 9.45213C0.565449 9.56877 0.500061 9.72685 0.500061 9.89166C0.500061 10.0565 0.565449 10.2145 0.681874 10.3312L2.0625 11.7103C2.17376 11.82 2.32211 11.8841 2.4783 11.8899C2.63449 11.8957 2.78717 11.8427 2.90625 11.7415C3.08965 11.5838 3.32589 11.5011 3.56763 11.5102C3.80937 11.5193 4.03875 11.6194 4.2098 11.7904C4.38086 11.9615 4.48095 12.1909 4.49003 12.4326C4.49911 12.6744 4.4165 12.9106 4.25875 13.094C4.15752 13.2131 4.10457 13.3658 4.11036 13.5219C4.11614 13.6781 4.18024 13.8265 4.29 13.9378L5.66906 15.3168C5.78571 15.4332 5.94379 15.4986 6.10859 15.4986C6.2734 15.4986 6.43148 15.4332 6.54812 15.3168L12.1856 9.67931C12.3215 9.54325 12.4239 9.37757 12.485 9.19525C12.4968 9.16007 12.5166 9.12811 12.5429 9.10187C12.5691 9.07563 12.6011 9.05582 12.6362 9.044C12.8185 8.98302 12.9842 8.88065 13.1203 8.74494L15.3184 6.5465C15.4344 6.42986 15.4995 6.27203 15.4995 6.10753C15.4994 5.94303 15.4342 5.78524 15.3181 5.66869ZM8.18156 4.74213C8.13513 4.78857 8.08001 4.82541 8.01934 4.85054C7.95867 4.87568 7.89364 4.88861 7.82797 4.88861C7.7623 4.88861 7.69727 4.87568 7.6366 4.85054C7.57593 4.82541 7.5208 4.78857 7.47437 4.74213L7.11469 4.38244C7.0232 4.2882 6.97247 4.16174 6.97346 4.0304C6.97445 3.89907 7.02708 3.77339 7.11997 3.68054C7.21286 3.58768 7.33856 3.53511 7.4699 3.53418C7.60124 3.53325 7.72767 3.58404 7.82187 3.67556L8.18156 4.03494C8.228 4.08137 8.26484 4.13649 8.28998 4.19716C8.31511 4.25783 8.32805 4.32286 8.32805 4.38853C8.32805 4.4542 8.31511 4.51923 8.28998 4.5799C8.26484 4.64057 8.228 4.69569 8.18156 4.74213ZM9.55656 6.11713C9.4628 6.21082 9.33568 6.26346 9.20312 6.26346C9.07057 6.26346 8.94345 6.21082 8.84969 6.11713L8.50594 5.77338C8.41216 5.6796 8.35947 5.5524 8.35947 5.41978C8.35947 5.28716 8.41216 5.15997 8.50594 5.06619C8.59972 4.97241 8.72691 4.91972 8.85953 4.91972C8.99215 4.91972 9.11935 4.97241 9.21312 5.06619L9.55687 5.40994C9.60348 5.45637 9.64046 5.51153 9.6657 5.57228C9.69095 5.63302 9.70396 5.69815 9.70399 5.76394C9.70402 5.82972 9.69106 5.89486 9.66587 5.95563C9.64068 6.01639 9.60375 6.07159 9.55719 6.11806L9.55656 6.11713ZM10.9316 7.49213C10.8851 7.53857 10.83 7.57541 10.7693 7.60054C10.7087 7.62568 10.6436 7.63861 10.578 7.63861C10.5123 7.63861 10.4473 7.62568 10.3866 7.60054C10.3259 7.57541 10.2708 7.53857 10.2244 7.49213L9.88062 7.14838C9.78914 7.05413 9.73841 6.92768 9.7394 6.79634C9.74039 6.665 9.79301 6.53933 9.88591 6.44647C9.9788 6.35362 10.1045 6.30105 10.2358 6.30012C10.3672 6.29919 10.4936 6.34997 10.5878 6.4415L10.9316 6.78525C10.9783 6.8316 11.0154 6.88672 11.0408 6.94745C11.0662 7.00818 11.0793 7.07333 11.0795 7.13914C11.0796 7.20496 11.0667 7.27016 11.0416 7.33101C11.0165 7.39185 10.9797 7.44713 10.9331 7.49369L10.9316 7.49213ZM12.32 8.884C12.2736 8.93044 12.2184 8.96728 12.1578 8.99242C12.0971 9.01755 12.0321 9.03049 11.9664 9.03049C11.9007 9.03049 11.8357 9.01755 11.775 8.99242C11.7144 8.96728 11.6592 8.93044 11.6128 8.884L11.2553 8.52463C11.2079 8.47833 11.1702 8.42308 11.1443 8.36207C11.1184 8.30106 11.1049 8.23552 11.1046 8.16925C11.1043 8.10298 11.1172 8.03731 11.1424 7.97606C11.1677 7.91481 11.2049 7.85919 11.2519 7.81245C11.2989 7.76571 11.3547 7.72877 11.4161 7.70378C11.4774 7.67879 11.5432 7.66625 11.6094 7.66688C11.6757 7.66752 11.7412 7.68133 11.802 7.7075C11.8629 7.73366 11.918 7.77167 11.9641 7.81931L12.3219 8.17838C12.3683 8.22483 12.4051 8.27997 12.4302 8.34065C12.4553 8.40133 12.4682 8.46636 12.4682 8.53203C12.4682 8.5977 12.4552 8.66273 12.43 8.72338C12.4049 8.78404 12.368 8.83915 12.3216 8.88556L12.32 8.884Z" fill="#FE5722"/>
</g>
<defs>
<clipPath id="clip0_173_1927">
<rect width="16" height="16" fill="white"/>
</clipPath>
</defs>
</svg>
