<svg width="24" height="24" viewBox="0 0 24 24" fill="none" xmlns="http://www.w3.org/2000/svg">
<path fill-rule="evenodd" clip-rule="evenodd" d="M21.1 8.004C21.045 8 20.984 8 20.92 8H18.395C16.327 8 14.558 9.628 14.558 11.75C14.558 13.872 16.328 15.5 18.395 15.5H20.92C20.984 15.5 21.045 15.5 21.102 15.496C21.527 15.4704 21.9282 15.2911 22.2309 14.9916C22.5335 14.6921 22.717 14.2927 22.747 13.868C22.751 13.808 22.751 13.743 22.751 13.683V9.817C22.751 9.757 22.751 9.692 22.747 9.632C22.717 9.20726 22.5335 8.80793 22.2309 8.50842C21.9282 8.2089 21.527 8.02963 21.102 8.004M18.174 12.75C18.706 12.75 19.137 12.302 19.137 11.75C19.137 11.198 18.706 10.75 18.174 10.75C17.641 10.75 17.21 11.198 17.21 11.75C17.21 12.302 17.641 12.75 18.174 12.75Z" fill="white"/>
<path fill-rule="evenodd" clip-rule="evenodd" d="M20.918 17C20.9526 16.9986 20.987 17.0054 21.0184 17.0198C21.0499 17.0342 21.0775 17.0558 21.099 17.0829C21.1206 17.11 21.1354 17.1418 21.1424 17.1757C21.1493 17.2096 21.1481 17.2446 21.139 17.278C20.939 17.99 20.62 18.598 20.109 19.108C19.36 19.858 18.411 20.189 17.239 20.347C16.099 20.5 14.644 20.5 12.806 20.5H10.694C8.856 20.5 7.4 20.5 6.261 20.347C5.089 20.189 4.14 19.857 3.391 19.109C2.643 18.36 2.311 17.411 2.153 16.239C2 15.099 2 13.644 2 11.806V11.694C2 9.856 2 8.4 2.153 7.26C2.311 6.088 2.643 5.139 3.391 4.39C4.14 3.642 5.089 3.31 6.261 3.152C7.401 3 8.856 3 10.694 3H12.806C14.644 3 16.1 3 17.239 3.153C18.411 3.311 19.36 3.643 20.109 4.391C20.62 4.903 20.939 5.51 21.139 6.222C21.1481 6.25537 21.1493 6.29042 21.1424 6.32432C21.1354 6.35822 21.1206 6.39 21.099 6.41708C21.0775 6.44417 21.0499 6.46579 21.0184 6.4802C20.987 6.4946 20.9526 6.50139 20.918 6.5H18.394C15.557 6.5 13.057 8.74 13.057 11.75C13.057 14.76 15.557 17 18.394 17H20.918ZM5.75 7C5.55109 7 5.36032 7.07902 5.21967 7.21967C5.07902 7.36032 5 7.55109 5 7.75C5 7.94891 5.07902 8.13968 5.21967 8.28033C5.36032 8.42098 5.55109 8.5 5.75 8.5H9.75C9.94891 8.5 10.1397 8.42098 10.2803 8.28033C10.421 8.13968 10.5 7.94891 10.5 7.75C10.5 7.55109 10.421 7.36032 10.2803 7.21967C10.1397 7.07902 9.94891 7 9.75 7H5.75Z" fill="white"/>
</svg>
