<svg width="19" height="14" viewBox="0 0 19 14" fill="none" xmlns="http://www.w3.org/2000/svg">
<path d="M17.9701 1.53208C16.8792 1.07448 15.7873 0.900391 14.6961 0.900391C11.2319 0.900109 7.76806 2.6537 4.30391 2.6537C3.43512 2.6537 2.56691 2.54345 1.69812 2.26783C1.60053 2.23689 1.50266 2.22227 1.40703 2.22227C0.923 2.22227 0.5 2.59689 0.5 3.11692V12.0399C0.5 12.3951 0.703344 12.7317 1.02987 12.8684C2.12084 13.3263 3.21266 13.5004 4.30391 13.5004C7.76806 13.5004 11.2322 11.7468 14.6964 11.7468C15.5652 11.7468 16.4334 11.857 17.3022 12.1327C17.3997 12.1636 17.4976 12.1782 17.5932 12.1782C18.0773 12.1782 18.5003 11.8036 18.5003 11.2836V2.36092C18.5 2.00542 18.2967 1.66905 17.9701 1.53208ZM9.5 9.90039C8.25716 9.90039 7.25 8.6913 7.25 7.20039C7.25 5.7092 8.25744 4.50039 9.5 4.50039C10.7426 4.50039 11.75 5.7092 11.75 7.20039C11.75 8.69186 10.7423 9.90039 9.5 9.90039Z" fill="#1D1446"/>
</svg>
